<?xml version="1.0" encoding="utf-8"?>
<!-- Generator: Adobe Illustrator 16.2.1, SVG Export Plug-In . SVG Version: 6.00 Build 0)  -->
<!DOCTYPE svg PUBLIC "-//W3C//DTD SVG 1.1//EN" "http://www.w3.org/Graphics/SVG/1.1/DTD/svg11.dtd">
<svg version="1.1" id="Layer_1" xmlns="http://www.w3.org/2000/svg" xmlns:xlink="http://www.w3.org/1999/xlink" x="0px" y="0px"
	 width="30px" height="30px" viewBox="0 0 30 30" enable-background="new 0 0 30 30" xml:space="preserve">
<path fill="#B5B5B5" d="M15.219,21.875c-4.214,0-6.284-3.235-6.37-3.373c-0.356-0.57-0.183-1.32,0.387-1.676
	c0.568-0.354,1.315-0.184,1.672,0.381c0.068,0.105,1.484,2.234,4.311,2.234c2.73,0,3.762-2.024,3.804-2.111
	c0.296-0.598,1.02-0.853,1.622-0.563c0.601,0.29,0.859,1.003,0.577,1.607C21.154,18.517,19.531,21.875,15.219,21.875z"/>
<path fill="#B5B5B5" d="M15,0c0,0-3.52,2.183-8.167,6.833C2.183,11.48,0,15,0,15s2.157,3.802,6.678,8.322C11.198,27.842,15,30,15,30
	s3.878-1.927,8.527-6.576C28.177,18.776,30,15,30,15s-1.919-3.528-6.541-8.151C18.835,2.227,15,0,15,0z M27.285,15.029
	c0,0-1.491,3.086-5.29,6.884c-3.798,3.8-6.968,5.374-6.968,5.374s-3.106-1.763-6.8-5.457c-3.696-3.695-5.459-6.802-5.459-6.802
	s1.784-2.875,5.585-6.674c3.798-3.799,6.674-5.583,6.674-5.583s3.135,1.82,6.912,5.598C25.718,12.148,27.285,15.029,27.285,15.029z"
	/>
<circle fill="#B5B5B5" cx="10.945" cy="11.889" r="2.129"/>
<circle fill="#B5B5B5" cx="19.055" cy="11.889" r="2.129"/>
</svg>
