<?xml version="1.0" encoding="utf-8"?>
<!-- Generator: Adobe Illustrator 16.2.1, SVG Export Plug-In . SVG Version: 6.00 Build 0)  -->
<!DOCTYPE svg PUBLIC "-//W3C//DTD SVG 1.1//EN" "http://www.w3.org/Graphics/SVG/1.1/DTD/svg11.dtd">
<svg version="1.1" id="Layer_1" xmlns="http://www.w3.org/2000/svg" xmlns:xlink="http://www.w3.org/1999/xlink" x="0px" y="0px"
	 width="30px" height="30px" viewBox="0 0 30 30" enable-background="new 0 0 30 30" xml:space="preserve">
<path fill="#B5B5B5" d="M15.001,20.797c-2.792,0-4.376-1.128-4.548-1.257c-0.537-0.403-0.646-1.166-0.243-1.703
	c0.401-0.533,1.155-0.644,1.693-0.25c0.062,0.044,1.134,0.778,3.098,0.778c1.982,0,3.057-0.748,3.102-0.779
	c0.542-0.385,1.302-0.268,1.693,0.27c0.393,0.538,0.287,1.287-0.246,1.686C19.379,19.669,17.793,20.797,15.001,20.797z"/>
<path fill="#B5B5B5" d="M15,0c0,0-3.52,2.183-8.167,6.833C2.183,11.48,0,15,0,15s2.157,3.802,6.678,8.322C11.198,27.842,15,30,15,30
	s3.878-1.927,8.527-6.575C28.177,18.776,30,15,30,15s-1.919-3.528-6.541-8.151C18.835,2.227,15,0,15,0z M27.285,15.029
	c0,0-1.49,3.086-5.29,6.884c-3.798,3.8-6.968,5.374-6.968,5.374s-3.106-1.763-6.8-5.457c-3.695-3.694-5.458-6.801-5.458-6.801
	s1.784-2.875,5.584-6.674c3.798-3.799,6.674-5.584,6.674-5.584s3.135,1.82,6.913,5.599C25.718,12.148,27.285,15.029,27.285,15.029z"
	/>
<circle fill="#B5B5B5" cx="10.945" cy="11.889" r="2.129"/>
<circle fill="#B5B5B5" cx="19.055" cy="11.889" r="2.129"/>
</svg>
