<?xml version="1.0" encoding="utf-8"?>
<!-- Generator: Adobe Illustrator 16.2.1, SVG Export Plug-In . SVG Version: 6.00 Build 0)  -->
<!DOCTYPE svg PUBLIC "-//W3C//DTD SVG 1.1//EN" "http://www.w3.org/Graphics/SVG/1.1/DTD/svg11.dtd">
<svg version="1.1" id="Layer_1" xmlns="http://www.w3.org/2000/svg" xmlns:xlink="http://www.w3.org/1999/xlink" x="0px" y="0px"
	 width="30px" height="30px" viewBox="0 0 30 30" enable-background="new 0 0 30 30" xml:space="preserve">
<path fill="#FB9360" d="M14.899,0c0,0-3.52,2.183-8.168,6.833C2.082,11.48-0.102,15-0.102,15s2.156,3.802,6.678,8.322
	C11.097,27.842,14.899,30,14.899,30s3.878-1.927,8.527-6.575S29.898,15,29.898,15s-1.918-3.528-6.54-8.151
	C18.734,2.227,14.899,0,14.899,0z M27.183,15.029c0,0-1.49,3.087-5.29,6.884c-3.798,3.801-6.969,5.374-6.969,5.374
	s-3.106-1.763-6.8-5.457c-3.696-3.693-5.458-6.801-5.458-6.801S4.45,12.154,8.25,8.355c3.799-3.799,6.674-5.584,6.674-5.584
	s3.135,1.82,6.913,5.599C25.617,12.148,27.183,15.029,27.183,15.029z"/>
<circle fill="#FB9360" cx="10.843" cy="11.889" r="2.129"/>
<circle fill="#FB9360" cx="18.954" cy="11.889" r="2.129"/>
<path fill="#FB9360" d="M9.779,20.446c-0.005,0-0.01,0-0.015,0c-0.447-0.009-0.805-0.377-0.797-0.825
	c0.021-1.198,0.604-3.465,2.665-3.465c1.381,0,1.922,1.046,2.278,1.736c0.385,0.744,0.54,0.932,0.977,0.932
	c0.379,0,0.471-0.104,0.75-0.854c0.252-0.679,0.675-1.813,2.099-1.813c1.958,0,2.742,2.06,2.883,3.147
	c0.059,0.445-0.255,0.852-0.698,0.909c-0.45,0.058-0.853-0.256-0.909-0.7c-0.002-0.014-0.25-1.734-1.275-1.734
	c-0.236,0-0.308,0.03-0.578,0.757c-0.266,0.715-0.711,1.911-2.27,1.911c-1.484,0-2.046-1.089-2.418-1.81
	c-0.377-0.73-0.502-0.858-0.837-0.858c-0.968,0-1.042,1.852-1.042,1.871C10.582,20.092,10.221,20.446,9.779,20.446z"/>
</svg>
