<?xml version="1.0" encoding="utf-8"?>
<!-- Generator: Adobe Illustrator 17.0.2, SVG Export Plug-In . SVG Version: 6.00 Build 0)  -->
<!DOCTYPE svg PUBLIC "-//W3C//DTD SVG 1.1//EN" "http://www.w3.org/Graphics/SVG/1.1/DTD/svg11.dtd">
<svg version="1.1" id="Layer_1" xmlns="http://www.w3.org/2000/svg" xmlns:xlink="http://www.w3.org/1999/xlink" x="0px" y="0px"
	 width="16px" height="20px" viewBox="0 0 16 20" enable-background="new 0 0 16 20" xml:space="preserve">
<path fill="#CE2A28" d="M8,0C2.966,0-0.164,1.72,0.007,3.114l1.696,14.474C1.771,18.15,4.316,19.998,8,20
	c3.684-0.002,6.229-1.85,6.297-2.412l1.696-14.474C16.164,1.72,13.035,0,8,0z M11.397,14.732l-1.189,1.234L8,13.675l-2.208,2.29
	l-1.19-1.233l2.208-2.289l-2.208-2.289l1.19-1.232L8,11.211l2.208-2.289l1.19,1.232l-2.209,2.289L11.397,14.732z M8,5.233
	C4.316,5.229,1.703,3.869,1.703,3.361C1.701,2.856,4.317,1.492,8,1.496c3.684-0.003,6.3,1.361,6.297,1.865
	C14.297,3.869,11.684,5.229,8,5.233z"/>
</svg>
