<?xml version="1.0" encoding="utf-8"?>
<!-- Generator: Adobe Illustrator 17.0.2, SVG Export Plug-In . SVG Version: 6.00 Build 0)  -->
<!DOCTYPE svg PUBLIC "-//W3C//DTD SVG 1.1//EN" "http://www.w3.org/Graphics/SVG/1.1/DTD/svg11.dtd">
<svg version="1.1" id="Layer_1" xmlns="http://www.w3.org/2000/svg" xmlns:xlink="http://www.w3.org/1999/xlink" x="0px" y="0px"
	 width="20.042px" height="20px" viewBox="0 0 20.042 20" enable-background="new 0 0 20.042 20" xml:space="preserve">
<path fill="#CF2A28" d="M19.274,3.67l-3.096-3.096c-0.752-0.754-1.97-0.767-2.706-0.032c-0.001,0.001-0.001,0.002-0.002,0.003
	l-0.001-0.001L2.182,11.832l-0.227,0.225L0,19.858l7.793-1.955l0.727-0.741l0,0L19.304,6.377h-0.001
	c0-0.001,0.001-0.001,0.002-0.002C20.04,5.64,20.026,4.422,19.274,3.67z M2.754,12.844l4.26,4.259l-4,1.002L1.765,16.79
	L2.754,12.844z M7.797,14.467l-2.416-2.416l8.088-8.088l2.415,2.416L7.797,14.467z"/>
</svg>
