<?xml version="1.0" encoding="utf-8"?>
<!-- Generator: Adobe Illustrator 16.2.1, SVG Export Plug-In . SVG Version: 6.00 Build 0)  -->
<!DOCTYPE svg PUBLIC "-//W3C//DTD SVG 1.1//EN" "http://www.w3.org/Graphics/SVG/1.1/DTD/svg11.dtd">
<svg version="1.1" id="Layer_1" xmlns="http://www.w3.org/2000/svg" xmlns:xlink="http://www.w3.org/1999/xlink" x="0px" y="0px"
	 width="300px" height="250px" viewBox="0 0 300 250" enable-background="new 0 0 300 250" xml:space="preserve">
<rect fill="#CCCCCC" width="300" height="250"/>
<g>
	<path fill="#8B8C8B" d="M69.674,161.207l4.055-7.816h3.047l-5.707,10.488v6.645h-2.812v-6.551l-5.684-10.582h3.047L69.674,161.207z
		"/>
	<path fill="#8B8C8B" d="M90.241,164.02c0,2.117-0.543,3.77-1.629,4.957s-2.598,1.781-4.535,1.781c-1.211,0-2.281-0.273-3.211-0.82
		s-1.645-1.332-2.145-2.355s-0.75-2.211-0.75-3.562c0-2.102,0.539-3.742,1.617-4.922s2.598-1.77,4.559-1.77
		c1.875,0,3.359,0.604,4.453,1.811S90.241,161.973,90.241,164.02z M80.807,164.02c0,2.992,1.105,4.488,3.316,4.488
		c2.188,0,3.281-1.496,3.281-4.488c0-2.961-1.102-4.441-3.305-4.441c-1.156,0-1.994,0.383-2.514,1.148S80.807,162.59,80.807,164.02z
		"/>
	<path fill="#8B8C8B" d="M102.545,170.523l-0.387-1.699h-0.141c-0.383,0.602-0.928,1.074-1.635,1.418s-1.514,0.516-2.42,0.516
		c-1.57,0-2.742-0.391-3.516-1.172s-1.16-1.965-1.16-3.551v-8.473h2.777v7.992c0,0.992,0.203,1.736,0.609,2.232
		s1.043,0.744,1.91,0.744c1.156,0,2.006-0.346,2.549-1.037s0.814-1.85,0.814-3.475v-6.457h2.766v12.961H102.545z"/>
	<path fill="#8B8C8B" d="M115.213,157.328c0.555,0,1.012,0.039,1.371,0.117l-0.27,2.566c-0.391-0.094-0.797-0.141-1.219-0.141
		c-1.102,0-1.994,0.359-2.678,1.078s-1.025,1.652-1.025,2.801v6.773h-2.754v-12.961h2.156l0.363,2.285h0.141
		c0.43-0.773,0.99-1.387,1.682-1.84S114.417,157.328,115.213,157.328z"/>
	<path fill="#8B8C8B" d="M133.331,170.523l-0.551-1.805h-0.094c-0.625,0.789-1.254,1.326-1.887,1.611s-1.445,0.428-2.438,0.428
		c-1.273,0-2.268-0.344-2.982-1.031s-1.072-1.66-1.072-2.918c0-1.336,0.496-2.344,1.488-3.023s2.504-1.051,4.535-1.113l2.238-0.07
		v-0.691c0-0.828-0.193-1.447-0.58-1.857s-0.986-0.615-1.799-0.615c-0.664,0-1.301,0.098-1.91,0.293s-1.195,0.426-1.758,0.691
		l-0.891-1.969c0.703-0.367,1.473-0.646,2.309-0.838s1.625-0.287,2.367-0.287c1.648,0,2.893,0.359,3.732,1.078
		s1.26,1.848,1.26,3.387v8.73H133.331z M129.229,168.648c1,0,1.803-0.279,2.408-0.838s0.908-1.342,0.908-2.35v-1.125l-1.664,0.07
		c-1.297,0.047-2.24,0.264-2.83,0.65s-0.885,0.979-0.885,1.775c0,0.578,0.172,1.025,0.516,1.342S128.542,168.648,129.229,168.648z"
		/>
	<path fill="#8B8C8B" d="M143.514,170.758c-1.617,0-2.879-0.586-3.785-1.758s-1.359-2.816-1.359-4.934
		c0-2.125,0.459-3.779,1.377-4.963s2.189-1.775,3.814-1.775c1.703,0,3,0.629,3.891,1.887h0.141c-0.133-0.93-0.199-1.664-0.199-2.203
		v-4.723h2.766v18.234h-2.156l-0.48-1.699h-0.129C146.51,170.113,145.217,170.758,143.514,170.758z M144.252,168.531
		c1.133,0,1.957-0.318,2.473-0.955s0.781-1.67,0.797-3.1v-0.387c0-1.633-0.266-2.793-0.797-3.48s-1.363-1.031-2.496-1.031
		c-0.969,0-1.715,0.393-2.238,1.178s-0.785,1.904-0.785,3.357c0,1.438,0.254,2.533,0.762,3.287S143.237,168.531,144.252,168.531z"/>
	<path fill="#8B8C8B" d="M158.467,170.758c-1.617,0-2.879-0.586-3.785-1.758s-1.359-2.816-1.359-4.934
		c0-2.125,0.459-3.779,1.377-4.963s2.189-1.775,3.814-1.775c1.703,0,3,0.629,3.89,1.887h0.141c-0.133-0.93-0.199-1.664-0.199-2.203
		v-4.723h2.766v18.234h-2.156l-0.48-1.699h-0.129C161.463,170.113,160.17,170.758,158.467,170.758z M159.206,168.531
		c1.133,0,1.957-0.318,2.472-0.955s0.781-1.67,0.797-3.1v-0.387c0-1.633-0.266-2.793-0.797-3.48s-1.363-1.031-2.496-1.031
		c-0.969,0-1.715,0.393-2.238,1.178s-0.785,1.904-0.785,3.357c0,1.438,0.254,2.533,0.762,3.287S158.19,168.531,159.206,168.531z"/>
	<path fill="#8B8C8B" d="M186.686,170.523h-2.766v-7.969c0-1-0.201-1.746-0.604-2.238s-1.041-0.738-1.916-0.738
		c-1.156,0-2.006,0.346-2.549,1.037s-0.814,1.85-0.814,3.475v6.434h-2.754v-18.234h2.754v4.629c0,0.742-0.047,1.535-0.141,2.379
		h0.176c0.375-0.625,0.896-1.109,1.564-1.453s1.447-0.516,2.338-0.516c3.141,0,4.711,1.582,4.711,4.746V170.523z"/>
	<path fill="#8B8C8B" d="M196.178,170.758c-2.016,0-3.592-0.588-4.729-1.764s-1.705-2.795-1.705-4.857
		c0-2.117,0.527-3.781,1.582-4.992s2.504-1.816,4.348-1.816c1.711,0,3.062,0.52,4.055,1.559s1.488,2.469,1.488,4.289v1.488h-8.637
		c0.039,1.258,0.379,2.225,1.02,2.9s1.543,1.014,2.707,1.014c0.766,0,1.479-0.072,2.139-0.217s1.369-0.385,2.127-0.721v2.238
		c-0.672,0.32-1.352,0.547-2.039,0.68S197.061,170.758,196.178,170.758z M195.674,159.414c-0.875,0-1.576,0.277-2.104,0.832
		s-0.842,1.363-0.943,2.426h5.883c-0.016-1.07-0.273-1.881-0.773-2.432S196.549,159.414,195.674,159.414z"/>
	<path fill="#8B8C8B" d="M210.92,157.328c0.555,0,1.012,0.039,1.371,0.117l-0.27,2.566c-0.391-0.094-0.797-0.141-1.219-0.141
		c-1.102,0-1.994,0.359-2.678,1.078s-1.025,1.652-1.025,2.801v6.773h-2.754v-12.961h2.156l0.363,2.285h0.141
		c0.43-0.773,0.99-1.387,1.682-1.84S210.123,157.328,210.92,157.328z"/>
	<path fill="#8B8C8B" d="M220.354,170.758c-2.016,0-3.592-0.588-4.729-1.764s-1.705-2.795-1.705-4.857
		c0-2.117,0.527-3.781,1.582-4.992s2.504-1.816,4.348-1.816c1.711,0,3.062,0.52,4.055,1.559s1.488,2.469,1.488,4.289v1.488h-8.637
		c0.039,1.258,0.379,2.225,1.02,2.9s1.543,1.014,2.707,1.014c0.766,0,1.479-0.072,2.139-0.217s1.369-0.385,2.127-0.721v2.238
		c-0.672,0.32-1.352,0.547-2.039,0.68S221.236,170.758,220.354,170.758z M219.85,159.414c-0.875,0-1.576,0.277-2.104,0.832
		s-0.842,1.363-0.943,2.426h5.883c-0.016-1.07-0.273-1.881-0.773-2.432S220.725,159.414,219.85,159.414z"/>
	<path fill="#8B8C8B" d="M229.869,165.32v-0.75c0-0.859,0.156-1.574,0.469-2.145s0.859-1.16,1.641-1.77
		c0.93-0.734,1.529-1.305,1.799-1.711s0.404-0.891,0.404-1.453c0-0.656-0.219-1.16-0.656-1.512s-1.066-0.527-1.887-0.527
		c-0.742,0-1.43,0.105-2.062,0.316s-1.25,0.465-1.852,0.762l-0.984-2.062c1.586-0.883,3.285-1.324,5.098-1.324
		c1.531,0,2.746,0.375,3.645,1.125s1.348,1.785,1.348,3.105c0,0.586-0.086,1.107-0.258,1.564s-0.432,0.893-0.779,1.307
		s-0.947,0.953-1.799,1.617c-0.727,0.57-1.213,1.043-1.459,1.418s-0.369,0.879-0.369,1.512v0.527H229.869z M229.389,169.059
		c0-1.18,0.574-1.77,1.723-1.77c0.562,0,0.992,0.154,1.289,0.463s0.445,0.744,0.445,1.307c0,0.555-0.15,0.994-0.451,1.318
		s-0.729,0.486-1.283,0.486s-0.98-0.158-1.277-0.475S229.389,169.629,229.389,169.059z"/>
</g>
<g>
	<path fill="#686868" d="M74.986,188.498c-1.377,0-2.451,0.564-3.223,1.692s-1.157,2.683-1.157,4.665
		c0,4.121,1.567,6.182,4.702,6.182c0.947,0,1.865-0.131,2.754-0.395s1.782-0.582,2.681-0.953v4.893
		c-1.787,0.791-3.809,1.188-6.064,1.188c-3.232,0-5.71-0.938-7.434-2.812s-2.585-4.586-2.585-8.131c0-2.217,0.417-4.164,1.252-5.844
		s2.036-2.972,3.604-3.875s3.411-1.355,5.53-1.355c2.314,0,4.526,0.503,6.636,1.509l-1.772,4.555
		c-0.791-0.371-1.582-0.684-2.373-0.938S75.894,188.498,74.986,188.498z"/>
	<path fill="#686868" d="M100.43,197.141c0,2.715-0.73,4.832-2.19,6.351s-3.503,2.278-6.13,2.278c-2.52,0-4.524-0.777-6.013-2.33
		s-2.234-3.652-2.234-6.299c0-2.705,0.73-4.807,2.19-6.306s3.508-2.249,6.145-2.249c1.631,0,3.071,0.348,4.321,1.041
		s2.214,1.687,2.893,2.98S100.43,195.412,100.43,197.141z M89.678,197.141c0,1.426,0.19,2.513,0.571,3.26s1.021,1.121,1.919,1.121
		c0.889,0,1.516-0.374,1.882-1.121s0.549-1.834,0.549-3.26c0-1.416-0.186-2.484-0.557-3.207s-1.006-1.084-1.904-1.084
		c-0.879,0-1.509,0.358-1.89,1.076S89.678,195.715,89.678,197.141z"/>
	<path fill="#686868" d="M114.17,205.477v-9.053c0-1.104-0.159-1.937-0.476-2.498s-0.828-0.842-1.531-0.842
		c-0.967,0-1.665,0.385-2.095,1.156s-0.645,2.096-0.645,3.971v7.266h-5.728v-16.598h4.321l0.718,2.051h0.337
		c0.488-0.781,1.165-1.367,2.029-1.758s1.858-0.586,2.981-0.586c1.836,0,3.264,0.533,4.285,1.598s1.531,2.562,1.531,4.496v10.797
		H114.17z"/>
	<path fill="#686868" d="M131.924,201.242c0.771,0,1.694-0.189,2.769-0.57v4.174c-0.771,0.332-1.506,0.569-2.205,0.711
		s-1.516,0.213-2.454,0.213c-1.924,0-3.311-0.472-4.16-1.414s-1.274-2.391-1.274-4.344v-6.84h-2.007v-2.33l2.549-1.801l1.479-3.486
		h3.75v3.324h4.072v4.293h-4.072v6.459C130.372,200.705,130.889,201.242,131.924,201.242z"/>
	<path fill="#686868" d="M148.418,205.477l-1.099-2.197h-0.117c-0.771,0.957-1.558,1.611-2.358,1.963s-1.836,0.527-3.105,0.527
		c-1.562,0-2.793-0.469-3.691-1.406s-1.348-2.256-1.348-3.955c0-1.768,0.615-3.084,1.846-3.948s3.013-1.351,5.347-1.458l2.769-0.088
		v-0.234c0-1.367-0.674-2.051-2.021-2.051c-1.211,0-2.749,0.41-4.614,1.23l-1.655-3.779c1.934-0.996,4.375-1.494,7.324-1.494
		c2.129,0,3.777,0.527,4.944,1.582s1.75,2.529,1.75,4.424v10.885H148.418z M144.17,201.727c0.693,0,1.287-0.221,1.78-0.66
		s0.74-1.01,0.74-1.713v-1.289l-1.318,0.059c-1.885,0.068-2.827,0.762-2.827,2.08C142.544,201.219,143.086,201.727,144.17,201.727z"
		/>
	<path fill="#686868" d="M163.844,205.77c-2.715,0-4.773-0.732-6.175-2.197s-2.102-3.57-2.102-6.314c0-2.754,0.757-4.887,2.271-6.4
		s3.667-2.271,6.459-2.271c1.924,0,3.736,0.42,5.436,1.26l-1.686,4.234c-0.693-0.303-1.332-0.545-1.918-0.726
		s-1.197-0.271-1.832-0.271c-0.928,0-1.645,0.361-2.152,1.084s-0.762,1.742-0.762,3.061c0,2.656,0.98,3.984,2.943,3.984
		c1.68,0,3.291-0.488,4.834-1.465v4.557C167.686,205.281,165.914,205.77,163.844,205.77z"/>
	<path fill="#686868" d="M180.586,201.242c0.771,0,1.695-0.189,2.77-0.57v4.174c-0.771,0.332-1.507,0.569-2.205,0.711
		s-1.516,0.213-2.453,0.213c-1.924,0-3.311-0.472-4.16-1.414s-1.275-2.391-1.275-4.344v-6.84h-2.006v-2.33l2.549-1.801l1.479-3.486
		h3.75v3.324h4.072v4.293h-4.072v6.459C179.033,200.705,179.551,201.242,180.586,201.242z"/>
	<path fill="#686868" d="M205.869,205.477l-0.717-2.066h-0.338c-0.479,0.762-1.145,1.346-1.999,1.751s-1.858,0.608-3.011,0.608
		c-1.826,0-3.246-0.53-4.262-1.59s-1.523-2.557-1.523-4.49v-10.811h5.727v9.068c0,1.084,0.154,1.904,0.462,2.461
		s0.813,0.834,1.517,0.834c0.986,0,1.689-0.388,2.109-1.164s0.629-2.088,0.629-3.934v-7.266h5.729v16.598H205.869z"/>
	<path fill="#686868" d="M226.963,200.379c0,1.777-0.605,3.119-1.816,4.027s-2.949,1.363-5.215,1.363
		c-1.23,0-2.299-0.066-3.207-0.198s-1.836-0.374-2.783-0.726v-4.584c0.889,0.391,1.862,0.713,2.922,0.967s2.004,0.381,2.834,0.381
		c1.24,0,1.861-0.283,1.861-0.85c0-0.293-0.174-0.555-0.521-0.784s-1.354-0.677-3.024-1.341c-1.523-0.625-2.588-1.335-3.193-2.131
		s-0.908-1.805-0.908-3.025c0-1.543,0.596-2.744,1.787-3.604s2.875-1.289,5.053-1.289c1.094,0,2.122,0.12,3.084,0.359
		s1.961,0.588,2.996,1.047l-1.553,3.691c-0.762-0.342-1.568-0.632-2.418-0.871s-1.543-0.359-2.08-0.359
		c-0.938,0-1.406,0.23-1.406,0.689c0,0.283,0.164,0.524,0.491,0.725s1.272,0.607,2.835,1.223c1.162,0.479,2.028,0.947,2.6,1.406
		s0.991,0.999,1.26,1.619S226.963,199.49,226.963,200.379z"/>
	<path fill="#686868" d="M234.947,197.918h-4.834l-0.748-13.857h6.328L234.947,197.918z M229.424,203.045
		c0-0.889,0.264-1.58,0.791-2.073s1.295-0.739,2.301-0.739c0.996,0,1.75,0.246,2.263,0.739s0.769,1.185,0.769,2.073
		c0,0.879-0.266,1.564-0.798,2.058s-1.276,0.739-2.233,0.739c-0.967,0-1.725-0.246-2.271-0.739S229.424,203.924,229.424,203.045z"/>
</g>
<g>
	<path fill="#AFAFAF" d="M195,61.645c0-4.222-3.423-7.645-7.646-7.645h-74.709c-4.223,0-7.646,3.423-7.646,7.645v57.711
		c0,4.222,3.423,7.645,7.646,7.645h74.709c4.223,0,7.646-3.423,7.646-7.645V61.645z M186,62v54h-72V62H186z"/>
	<polygon fill="#AFAFAF" points="181,111 181,77.897 164.349,92.018 149.97,82.363 137.449,87.263 128.154,94.322 119,88.271 
		119,111 	"/>
	<circle fill="#AFAFAF" cx="131.414" cy="75.593" r="5.332"/>
</g>
</svg>
