<?xml version="1.0" encoding="utf-8"?>
<!-- Generator: Adobe Illustrator 16.2.1, SVG Export Plug-In . SVG Version: 6.00 Build 0)  -->
<!DOCTYPE svg PUBLIC "-//W3C//DTD SVG 1.1//EN" "http://www.w3.org/Graphics/SVG/1.1/DTD/svg11.dtd">
<svg version="1.1" id="Layer_1" xmlns="http://www.w3.org/2000/svg" xmlns:xlink="http://www.w3.org/1999/xlink" x="0px" y="0px"
	 width="70px" height="87.25px" viewBox="-27.5 0 70 87.25" enable-background="new -27.5 0 70 87.25" xml:space="preserve">
<g>
	<path fill="#8C8B8B" d="M-14.438,87.25h-2.031l-1.938-6.812c-0.083-0.297-0.188-0.726-0.312-1.285s-0.201-0.949-0.227-1.168
		c-0.052,0.333-0.137,0.766-0.254,1.297s-0.215,0.927-0.293,1.188l-1.891,6.781h-2.031l-1.477-5.719l-1.5-5.703h1.906l1.633,6.656
		c0.255,1.067,0.438,2.011,0.547,2.828c0.057-0.442,0.143-0.938,0.258-1.484c0.114-0.547,0.219-0.989,0.312-1.328l1.859-6.672h1.852
		l1.906,6.703c0.182,0.62,0.375,1.547,0.578,2.781c0.078-0.745,0.266-1.692,0.562-2.844l1.625-6.641h1.891L-14.438,87.25z"/>
	<path fill="#8C8B8B" d="M-2.758,87.25l-1.141-3.172h-4.367l-1.117,3.172h-1.969l4.273-11.469h2.031l4.273,11.469H-2.758z
		 M-4.391,82.469l-1.07-3.109c-0.078-0.208-0.187-0.536-0.324-0.984c-0.138-0.448-0.233-0.776-0.285-0.984
		c-0.141,0.641-0.347,1.341-0.617,2.102l-1.031,2.977H-4.391z"/>
	<path fill="#8C8B8B" d="M10.25,87.25H7.961l-5.617-9.102H2.281l0.039,0.508c0.073,0.969,0.109,1.854,0.109,2.656v5.938H0.734
		V75.828H3l5.602,9.055h0.047c-0.011-0.12-0.031-0.556-0.062-1.309s-0.047-1.34-0.047-1.762v-5.984h1.711V87.25z"/>
	<path fill="#8C8B8B" d="M17.211,87.25h-1.867v-9.82h-3.359v-1.602h8.586v1.602h-3.359V87.25z"/>
	<path fill="#8C8B8B" d="M28.781,87.25H22.32V75.828h6.461v1.578h-4.594v3.109h4.305v1.562h-4.305v3.586h4.594V87.25z"/>
	<path fill="#8C8B8B" d="M40.539,81.43c0,1.886-0.523,3.327-1.57,4.324s-2.555,1.496-4.523,1.496H31.25V75.828h3.531
		c1.817,0,3.231,0.489,4.242,1.469S40.539,79.653,40.539,81.43z M38.57,81.492c0-2.734-1.278-4.102-3.836-4.102h-1.617v8.289h1.328
		C37.195,85.68,38.57,84.284,38.57,81.492z"/>
</g>
<path fill="#BABABA" d="M41.912,61.812c-0.84-2.265-5.889-6.011-14.954-9.518c-9.039-3.493-11.923-6.439-11.923-12.753
	c0-3.787,2.761-2.553,3.971-9.488c0.506-2.876,2.939-0.048,3.404-6.614c0-2.618-1.326-3.273-1.326-3.273s0.675-3.871,0.943-6.853
	C22.352,9.598,19.998,0,7.456,0S-7.441,9.598-7.111,13.318c0.261,2.982,0.937,6.854,0.937,6.854s-1.327,0.654-1.327,3.272
	c0.464,6.566,2.906,3.737,3.407,6.614c1.211,6.938,3.965,5.701,3.965,9.488c0,6.31-2.88,9.263-11.921,12.749
	c-9.065,3.507-14.198,7.219-14.953,9.521c-2.122,6.406,3.24,8.184,3.24,8.184H7.452h31.972C39.424,70,44.113,67.717,41.912,61.812z
	 M9.083,25.684c-0.352,0.348-0.841,0.522-1.468,0.522c-0.642,0-1.139-0.17-1.491-0.51c-0.352-0.34-0.528-0.82-0.528-1.439
	c0-0.642,0.172-1.127,0.516-1.457c0.344-0.329,0.845-0.493,1.502-0.493c0.635,0,1.126,0.168,1.474,0.504
	c0.349,0.337,0.522,0.818,0.522,1.445C9.61,24.86,9.434,25.336,9.083,25.684z M10.688,17.294c-0.734,0.542-1.198,0.956-1.394,1.238
	c-0.195,0.283-0.292,0.654-0.292,1.113v0.688H5.963v-0.849c0-0.734,0.157-1.372,0.47-1.915s0.887-1.12,1.72-1.732
	c0.803-0.573,1.332-1.04,1.588-1.399c0.256-0.359,0.385-0.76,0.385-1.204c0-0.497-0.184-0.875-0.551-1.135s-0.879-0.39-1.537-0.39
	c-1.147,0-2.455,0.375-3.923,1.124l-1.25-2.512c1.705-0.956,3.513-1.434,5.425-1.434c1.575,0,2.827,0.378,3.756,1.136
	c0.929,0.756,1.394,1.766,1.394,3.028c0,0.841-0.191,1.567-0.574,2.179C12.485,15.842,11.758,16.529,10.688,17.294z"/>
</svg>
