<?xml version="1.0" encoding="utf-8"?>
<!-- Generator: Adobe Illustrator 16.2.1, SVG Export Plug-In . SVG Version: 6.00 Build 0)  -->
<!DOCTYPE svg PUBLIC "-//W3C//DTD SVG 1.1//EN" "http://www.w3.org/Graphics/SVG/1.1/DTD/svg11.dtd">
<svg version="1.1" id="Layer_1" xmlns="http://www.w3.org/2000/svg" xmlns:xlink="http://www.w3.org/1999/xlink" x="0px" y="0px"
	 width="40px" height="40px" viewBox="0 0 40 40" enable-background="new 0 0 40 40" xml:space="preserve">
<g>
	<path fill="#FFFFFF" d="M0,0v40h40V0H0z M20,39.5C9.231,39.5,0.5,30.77,0.5,20C0.5,9.231,9.231,0.5,20,0.5S39.5,9.231,39.5,20
		C39.5,30.77,30.769,39.5,20,39.5z"/>
	<g>
		<path fill="#494C4C" d="M20,2c9.925,0,18,8.075,18,18s-8.075,18-18,18S2,29.925,2,20S10.075,2,20,2 M20,0C8.954,0,0,8.954,0,20
			s8.954,20,20,20s20-8.954,20-20S31.046,0,20,0L20,0z"/>
	</g>
</g>
</svg>
