<?xml version="1.0" encoding="utf-8"?>
<!-- Generator: Adobe Illustrator 16.2.1, SVG Export Plug-In . SVG Version: 6.00 Build 0)  -->
<!DOCTYPE svg PUBLIC "-//W3C//DTD SVG 1.1//EN" "http://www.w3.org/Graphics/SVG/1.1/DTD/svg11.dtd">
<svg version="1.1" id="Layer_1" xmlns="http://www.w3.org/2000/svg" xmlns:xlink="http://www.w3.org/1999/xlink" x="0px" y="0px"
	 width="20px" height="20px" viewBox="0 0 20 20" enable-background="new 0 0 20 20" xml:space="preserve">
<g>
	<path fill="#BABABA" d="M15.559,14.941c-2.582-0.997-3.407-1.84-3.407-3.643c0-1.082,0.789-0.729,1.135-2.711
		c0.144-0.822,0.84-0.014,0.973-1.89c0-0.748-0.379-0.935-0.379-0.935s0.192-1.106,0.269-1.958C14.242,2.742,13.57,0,9.987,0
		S5.731,2.742,5.825,3.805C5.9,4.657,6.093,5.763,6.093,5.763S5.714,5.95,5.714,6.698c0.132,1.876,0.83,1.068,0.973,1.89
		c0.346,1.982,1.133,1.629,1.133,2.711c0,1.803-0.823,2.646-3.406,3.643c-2.59,1.002-4.056,2.062-4.272,2.72
		C-0.464,19.492,1.068,20,1.068,20h8.918h9.134c0,0,1.34-0.652,0.711-2.339C19.591,17.014,18.149,15.943,15.559,14.941z"/>
</g>
</svg>
