<?xml version="1.0" encoding="utf-8"?>
<!-- Generator: Adobe Illustrator 16.2.1, SVG Export Plug-In . SVG Version: 6.00 Build 0)  -->
<!DOCTYPE svg PUBLIC "-//W3C//DTD SVG 1.1//EN" "http://www.w3.org/Graphics/SVG/1.1/DTD/svg11.dtd">
<svg version="1.1" id="Layer_1" xmlns="http://www.w3.org/2000/svg" xmlns:xlink="http://www.w3.org/1999/xlink" x="0px" y="0px"
	 width="40px" height="40px" viewBox="0 0 40 40" enable-background="new 0 0 40 40" xml:space="preserve">
<g>
	<path fill="#FFFFFF" d="M0,0v40h40V0H0z M20,39.5C9.231,39.5,0.5,30.77,0.5,20C0.5,9.231,9.231,0.5,20,0.5
		c10.77,0,19.5,8.731,19.5,19.5C39.5,30.77,30.77,39.5,20,39.5z"/>
	<g>
		<path fill="#494C4C" d="M20,1.188c10.373,0,18.812,8.439,18.812,18.812S30.373,38.812,20,38.812S1.188,30.373,1.188,20
			S9.627,1.188,20,1.188 M20,0C8.954,0,0,8.954,0,20s8.954,20,20,20s20-8.954,20-20S31.046,0,20,0L20,0z"/>
	</g>
</g>
</svg>
