<?xml version="1.0" encoding="utf-8"?>
<!-- Generator: Adobe Illustrator 16.2.1, SVG Export Plug-In . SVG Version: 6.00 Build 0)  -->
<!DOCTYPE svg PUBLIC "-//W3C//DTD SVG 1.1//EN" "http://www.w3.org/Graphics/SVG/1.1/DTD/svg11.dtd">
<svg version="1.1" id="Layer_1" xmlns="http://www.w3.org/2000/svg" xmlns:xlink="http://www.w3.org/1999/xlink" x="0px" y="0px"
	 width="70px" height="70px" viewBox="0 0 70 70" enable-background="new 0 0 70 70" xml:space="preserve">
<g>
	<path fill="#BABABA" d="M54.458,52.295c-9.039-3.493-11.923-6.439-11.923-12.753c0-3.787,2.761-2.553,3.971-9.488
		c0.506-2.876,2.939-0.048,3.404-6.614c0-2.618-1.326-3.273-1.326-3.273s0.675-3.871,0.943-6.853C49.851,9.598,47.498,0,34.956,0
		S20.059,9.598,20.389,13.318c0.261,2.982,0.937,6.854,0.937,6.854s-1.327,0.654-1.327,3.272c0.464,6.566,2.906,3.737,3.407,6.614
		c1.211,6.938,3.965,5.701,3.965,9.488c0,6.31-2.88,9.263-11.921,12.749c-9.065,3.507-14.198,7.219-14.953,9.522
		C-1.625,68.223,3.737,70,3.737,70h31.215h31.972c0,0,4.689-2.283,2.488-8.187C68.572,59.548,63.523,55.802,54.458,52.295z"/>
</g>
</svg>
