<?xml version="1.0" encoding="utf-8"?>
<!-- Generator: Adobe Illustrator 16.2.1, SVG Export Plug-In . SVG Version: 6.00 Build 0)  -->
<!DOCTYPE svg PUBLIC "-//W3C//DTD SVG 1.1//EN" "http://www.w3.org/Graphics/SVG/1.1/DTD/svg11.dtd">
<svg version="1.1" id="Layer_1" xmlns="http://www.w3.org/2000/svg" xmlns:xlink="http://www.w3.org/1999/xlink" x="0px" y="0px"
	 width="50px" height="50px" viewBox="0 0 50 50" enable-background="new 0 0 50 50" xml:space="preserve">
<path fill="#E6312A" d="M24.935,0.004c0,0,14.74-0.661,22.552,14.097c-4.127,0-23.805,0-23.805,0s-4.496-0.147-8.329,5.287
	c-1.105,2.276-2.284,4.625-0.958,9.251c-1.916-3.23-10.17-17.548-10.17-17.548S10.048,0.591,24.935,0.004z"/>
<path fill="#FEDA00" d="M46.719,37.474c0,0-6.797,13.046-23.532,12.404c2.064-3.56,11.905-20.536,11.905-20.536
	s2.376-3.805-0.43-9.829c-1.426-2.092-2.878-4.285-7.562-5.454c3.768-0.037,20.34,0.002,20.34,0.002S53.655,24.337,46.719,37.474z"
	/>
<path fill="#65B54C" d="M3.255,37.573c0,0-7.942-12.389,0.984-26.506c2.062,3.562,11.898,20.541,11.898,20.541
	s2.119,3.952,8.758,4.544c2.531-0.184,5.164-0.341,8.522-3.797c-1.852,3.269-10.174,17.547-10.174,17.547
	S11.207,50.125,3.255,37.573z"/>
<path fill="#60AC48" d="M23.187,50l3.349-13.92c0,0,3.682-0.286,6.767-3.659C31.387,35.776,23.187,50,23.187,50z"/>
<ellipse fill="#FFFFFF" cx="24.874" cy="25.155" rx="11.153" ry="11.111"/>
<linearGradient id="SVGID_1_" gradientUnits="userSpaceOnUse" x1="24.8735" y1="16.0352" x2="24.8735" y2="33.8532">
	<stop  offset="0" style="stop-color:#96C1E9"/>
	<stop  offset="1" style="stop-color:#146CB5"/>
</linearGradient>
<ellipse fill="url(#SVGID_1_)" cx="24.873" cy="25.155" rx="9.286" ry="9.251"/>
<path fill="#F1CF00" d="M47.44,14.062L33.652,18.09c0,0-2.079-3.04-6.552-4.03C30.975,14.047,47.44,14.062,47.44,14.062z"/>
<path fill="#DA3027" d="M14.127,28.139c-1.938-3.343-9.902-17.048-9.902-17.048l10.214,10.066c0,0-1.05,2.151-0.652,5.223
	L14.127,28.139z"/>
</svg>
