<?xml version="1.0" encoding="utf-8"?>
<!-- Generator: Adobe Illustrator 16.2.1, SVG Export Plug-In . SVG Version: 6.00 Build 0)  -->
<!DOCTYPE svg PUBLIC "-//W3C//DTD SVG 1.1//EN" "http://www.w3.org/Graphics/SVG/1.1/DTD/svg11.dtd">
<svg version="1.1" xmlns="http://www.w3.org/2000/svg" xmlns:xlink="http://www.w3.org/1999/xlink" x="0px" y="0px" width="160px"
	 height="160px" viewBox="0 0 160 160" enable-background="new 0 0 160 160" xml:space="preserve">
<g id="Isolation_Mode">
	<path fill="#D3D3D3" d="M80,0c0,0-18.772,11.641-43.56,36.44C11.641,61.228,0,80,0,80s11.501,20.275,35.615,44.385
		C59.725,148.488,80,160,80,160s20.683-10.275,45.477-35.068C150.275,100.139,160,80,160,80s-10.234-18.813-34.885-43.474
		C100.454,11.875,80,0,80,0z M145.517,80.156c0,0-7.946,16.462-28.212,36.717c-20.256,20.266-37.166,28.661-37.166,28.661
		s-16.567-9.403-36.265-29.104C24.165,96.729,14.763,80.156,14.763,80.156s9.515-15.334,29.783-35.593
		c20.257-20.261,35.593-29.78,35.593-29.78s16.719,9.704,36.867,29.858C137.162,64.79,145.517,80.156,145.517,80.156z"/>
</g>
<g id="Layer_2">
	<circle fill="#D3D3D3" cx="58.373" cy="63.408" r="11.354"/>
	<path fill="#D3D3D3" d="M112.98,63.408c0,6.27-5.085,11.355-11.353,11.355c-6.27,0-11.354-5.085-11.354-11.355
		c0-6.272,5.085-11.355,11.354-11.355C107.896,52.053,112.98,57.136,112.98,63.408z"/>
	<path fill="#D3D3D3" d="M52.697,109.045c-0.023,0-0.051,0-0.076,0c-2.39-0.041-4.292-2.012-4.252-4.398
		c0.109-6.393,3.221-18.479,14.214-18.479c7.368,0,10.247,5.574,12.148,9.263c2.051,3.965,2.879,4.964,5.21,4.964
		c2.024,0,2.51-0.552,3.999-4.559c1.345-3.615,3.599-9.668,11.19-9.668c10.443,0,14.627,10.983,15.379,16.79
		c0.309,2.368-1.359,4.538-3.73,4.846c-2.396,0.308-4.541-1.364-4.844-3.73c-0.013-0.078-1.336-9.254-6.805-9.254
		c-1.254,0-1.64,0.159-3.08,4.034c-1.418,3.812-3.792,10.192-12.109,10.192c-7.913,0-10.911-5.805-12.896-9.647
		c-2.009-3.894-2.679-4.579-4.463-4.579c-5.164,0-5.56,9.874-5.562,9.975C56.98,107.155,55.054,109.045,52.697,109.045z"/>
</g>
</svg>
