<?xml version="1.0" encoding="utf-8"?>
<!-- Generator: Adobe Illustrator 16.2.1, SVG Export Plug-In . SVG Version: 6.00 Build 0)  -->
<!DOCTYPE svg PUBLIC "-//W3C//DTD SVG 1.1//EN" "http://www.w3.org/Graphics/SVG/1.1/DTD/svg11.dtd">
<svg version="1.1" id="Layer_1" xmlns="http://www.w3.org/2000/svg" xmlns:xlink="http://www.w3.org/1999/xlink" x="0px" y="0px"
	 width="107.852px" height="47.625px" viewBox="0 0 107.852 47.625" enable-background="new 0 0 107.852 47.625"
	 xml:space="preserve">
<rect x="8.417" y="32.503" fill="#6D84B3" width="23.499" height="4.988"/>
<path fill="#FFFFFF" d="M18.618,37.491V24.654h-3.62v-4.622h3.62c0,0,0-1.895,0-3.948c0-3.102,2.138-5.95,7.064-5.95
	c1.996,0,3.47,0.179,3.47,0.179l-0.115,4.316c0,0-1.505-0.015-3.147-0.015c-1.775,0-2.061,0.768-2.061,2.043
	c0,1.006,0-2.148,0,3.375h5.349l-0.233,4.622h-5.116v12.836H18.618z"/>
<rect x="45.458" fill="#1D3971" width="2.626" height="47.625"/>
<rect x="48.083" fill="#476BB2" width="1.062" height="47.625"/>
<rect x="44.396" fill="#476BB2" width="1.062" height="47.625"/>
</svg>
