<?xml version="1.0" encoding="utf-8"?>
<!-- Generator: Adobe Illustrator 17.0.1, SVG Export Plug-In . SVG Version: 6.00 Build 0)  -->
<!DOCTYPE svg PUBLIC "-//W3C//DTD SVG 1.1//EN" "http://www.w3.org/Graphics/SVG/1.1/DTD/svg11.dtd">
<svg version="1.1" id="Layer_1" xmlns="http://www.w3.org/2000/svg" xmlns:xlink="http://www.w3.org/1999/xlink" x="0px" y="0px"
	 width="38.145px" height="31.188px" viewBox="0 0 38.145 31.188" enable-background="new 0 0 38.145 31.188" xml:space="preserve">
<rect x="34.458" fill="#1D3971" width="2.626" height="31.188"/>
<rect x="37.083" fill="#476BB2" width="1.062" height="31.188"/>
<rect x="33.396" fill="#476BB2" width="1.062" height="31.188"/>
<rect x="9.099" y="21.61" fill="#6D84B3" width="16.267" height="3.453"/>
<path fill="#FFFFFF" d="M16.161,25.063v-8.886h-2.506v-3.2h2.506c0,0,0-1.312,0-2.733c0-2.147,1.48-4.119,4.89-4.119
	c1.382,0,2.402,0.124,2.402,0.124l-0.08,2.988c0,0-1.042-0.01-2.178-0.01c-1.229,0-1.427,0.532-1.427,1.414c0,0.696,0-1.487,0,2.336
	h3.703l-0.161,3.2h-3.541v8.886L16.161,25.063L16.161,25.063z"/>
</svg>
