<?xml version="1.0" encoding="utf-8"?>
<!-- Generator: Adobe Illustrator 16.2.1, SVG Export Plug-In . SVG Version: 6.00 Build 0)  -->
<!DOCTYPE svg PUBLIC "-//W3C//DTD SVG 1.1//EN" "http://www.w3.org/Graphics/SVG/1.1/DTD/svg11.dtd">
<svg version="1.1" id="Layer_1" xmlns="http://www.w3.org/2000/svg" xmlns:xlink="http://www.w3.org/1999/xlink" x="0px" y="0px"
	 width="55px" height="55px" viewBox="0 0 55 55" enable-background="new 0 0 55 55" xml:space="preserve">
<circle fill="#E33F36" cx="27.5" cy="27.543" r="27.5"/>
<path fill="#FFFFFF" d="M42.658,18.339c-1.087,0.482-2.256,0.809-3.48,0.955c1.25-0.75,2.211-1.938,2.664-3.353
	c-1.172,0.695-2.469,1.199-3.849,1.471c-1.105-1.178-2.681-1.914-4.423-1.914c-3.348,0-6.061,2.713-6.061,6.06
	c0,0.475,0.054,0.938,0.157,1.381c-5.037-0.253-9.502-2.666-12.491-6.333c-0.521,0.896-0.82,1.937-0.82,3.047
	c0,2.102,1.07,3.958,2.696,5.043c-0.994-0.031-1.928-0.304-2.745-0.757c0,0.025,0,0.05,0,0.076c0,2.937,2.089,5.386,4.861,5.942
	c-0.508,0.139-1.044,0.213-1.597,0.213c-0.39,0-0.77-0.038-1.14-0.108c0.771,2.407,3.009,4.16,5.661,4.209
	c-2.074,1.625-4.687,2.594-7.526,2.594c-0.489,0-0.972-0.029-1.446-0.085c2.682,1.72,5.868,2.723,9.29,2.723
	c11.147,0,17.243-9.234,17.243-17.243c0-0.263-0.007-0.523-0.018-0.784C40.818,20.622,41.846,19.554,42.658,18.339"/>
</svg>
