<?xml version="1.0" encoding="utf-8"?>
<!-- Generator: Adobe Illustrator 16.2.1, SVG Export Plug-In . SVG Version: 6.00 Build 0)  -->
<!DOCTYPE svg PUBLIC "-//W3C//DTD SVG 1.1//EN" "http://www.w3.org/Graphics/SVG/1.1/DTD/svg11.dtd">
<svg version="1.1" id="Layer_1" xmlns="http://www.w3.org/2000/svg" xmlns:xlink="http://www.w3.org/1999/xlink" x="0px" y="0px"
	 width="55px" height="55px" viewBox="0 0 55 55" enable-background="new 0 0 55 55" xml:space="preserve">
<circle cx="27.5" cy="27.543" r="27.5"/>
<path fill="#FFFFFF" d="M24.018,42.178V28.443h-3.632v-4.944h3.632c0,0,0-2.027,0-4.224c0-3.319,2.145-6.367,7.088-6.367
	c2.002,0,3.482,0.192,3.482,0.192l-0.117,4.618c0,0-1.51-0.015-3.156-0.015c-1.783,0-2.068,0.821-2.068,2.184
	c0,1.079,0-2.296,0,3.612h5.367l-0.233,4.944h-5.134v13.733L24.018,42.178L24.018,42.178z"/>
</svg>
