<?xml version="1.0" encoding="utf-8"?>
<!-- Generator: Adobe Illustrator 16.2.1, SVG Export Plug-In . SVG Version: 6.00 Build 0)  -->
<!DOCTYPE svg PUBLIC "-//W3C//DTD SVG 1.1//EN" "http://www.w3.org/Graphics/SVG/1.1/DTD/svg11.dtd">
<svg version="1.1" id="Layer_1" xmlns="http://www.w3.org/2000/svg" xmlns:xlink="http://www.w3.org/1999/xlink" x="0px" y="0px"
	 width="55px" height="55px" viewBox="0 0 55 55" enable-background="new 0 0 55 55" xml:space="preserve">
<circle cx="27.5" cy="27.543" r="27.5"/>
<path fill="#FFFFFF" d="M27.113,17.252c0.762,0.632,2.354,1.958,2.354,4.479c0,2.458-1.395,3.62-2.785,4.712
	c-0.434,0.431-0.931,0.896-0.931,1.625c0,0.73,0.497,1.13,0.862,1.429l1.196,0.928c1.461,1.229,2.787,2.357,2.787,4.646
	c0,3.121-3.02,6.273-8.729,6.273c-4.811,0-7.134-2.291-7.134-4.746c0-1.195,0.596-2.886,2.557-4.05
	c2.055-1.259,4.843-1.425,6.337-1.524c-0.465-0.6-0.996-1.229-0.996-2.256c0-0.563,0.166-0.896,0.331-1.294
	c-0.365,0.032-0.73,0.067-1.062,0.067c-3.517,0-5.508-2.624-5.508-5.21c0-1.527,0.696-3.22,2.124-4.447
	c1.892-1.563,4.15-1.826,5.94-1.826h6.835l-2.123,1.194L27.113,17.252L27.113,17.252z M24.756,31.988
	c-0.268-0.034-0.434-0.034-0.764-0.034c-0.3,0-2.092,0.067-3.485,0.528c-0.728,0.269-2.854,1.063-2.854,3.418
	c0,2.356,2.29,4.051,5.841,4.051c3.187,0,4.875-1.525,4.875-3.584C28.371,34.674,27.278,33.777,24.756,31.988 M25.719,25.683
	c0.762-0.766,0.829-1.826,0.829-2.424c0-2.388-1.429-6.109-4.182-6.109c-0.862,0-1.792,0.434-2.324,1.097
	c-0.562,0.699-0.73,1.594-0.73,2.457c0,2.224,1.294,5.91,4.15,5.91C24.291,26.614,25.185,26.212,25.719,25.683"/>
<polygon fill="#FFFFFF" points="44.105,19.039 39.064,19.039 39.064,13.997 37.805,13.997 37.805,19.039 32.765,19.039 
	32.765,20.299 37.805,20.299 37.805,25.34 39.064,25.34 39.064,20.299 44.105,20.299 "/>
</svg>
