<?xml version="1.0" encoding="utf-8"?>
<!-- Generator: Adobe Illustrator 16.2.1, SVG Export Plug-In . SVG Version: 6.00 Build 0)  -->
<!DOCTYPE svg PUBLIC "-//W3C//DTD SVG 1.1//EN" "http://www.w3.org/Graphics/SVG/1.1/DTD/svg11.dtd">
<svg version="1.1" id="Layer_1" xmlns="http://www.w3.org/2000/svg" xmlns:xlink="http://www.w3.org/1999/xlink" x="0px" y="0px"
	 width="55px" height="110px" viewBox="0 0 55 110" enable-background="new 0 0 55 110" xml:space="preserve">
<circle cx="27.5" cy="27.543" r="27.5"/>
<path fill="#FFFFFF" d="M24.018,42.178V28.443h-3.632v-4.944h3.632c0,0,0-2.027,0-4.224c0-3.319,2.145-6.367,7.087-6.367
	c2.002,0,3.482,0.192,3.482,0.192l-0.117,4.618c0,0-1.51-0.015-3.156-0.015c-1.782,0-2.067,0.821-2.067,2.184
	c0,1.079,0-2.296,0,3.612h5.366l-0.232,4.944h-5.134v13.732L24.018,42.178L24.018,42.178z"/>
<circle fill="#E33F36" cx="27.5" cy="82.543" r="27.5"/>
<path fill="#FFFFFF" d="M24.018,97.178V83.443h-3.632v-4.944h3.632c0,0,0-2.026,0-4.224c0-3.319,2.145-6.367,7.087-6.367
	c2.002,0,3.482,0.191,3.482,0.191l-0.117,4.618c0,0-1.51-0.015-3.156-0.015c-1.782,0-2.067,0.82-2.067,2.184
	c0,1.079,0-2.296,0,3.612h5.366l-0.232,4.944h-5.134v13.732L24.018,97.178L24.018,97.178z"/>
</svg>
