<?xml version="1.0" encoding="utf-8"?>
<!-- Generator: Adobe Illustrator 17.0.2, SVG Export Plug-In . SVG Version: 6.00 Build 0)  -->
<!DOCTYPE svg PUBLIC "-//W3C//DTD SVG 1.1//EN" "http://www.w3.org/Graphics/SVG/1.1/DTD/svg11.dtd">
<svg version="1.1" id="Layer_1" xmlns="http://www.w3.org/2000/svg" xmlns:xlink="http://www.w3.org/1999/xlink" x="0px" y="0px"
	 width="448.667px" height="321.062px" viewBox="0 0 448.667 321.062" enable-background="new 0 0 448.667 321.062"
	 xml:space="preserve">
<path fill="none" stroke="#939393" stroke-width="1.7083" stroke-linecap="round" stroke-linejoin="round" stroke-miterlimit="10" stroke-dasharray="2.5624,4.2706" d="
	M304.822,277.757h-48.234c0,0-7.087-0.921-7.087-9.903c0-8.982,0-70.512,0-70.512"/>
<g>
	<g>
		
			<line fill="none" stroke="#939393" stroke-width="1.7083" stroke-linecap="round" stroke-linejoin="round" x1="34.88" y1="212.863" x2="34.88" y2="211.486"/>
		
			<path fill="none" stroke="#939393" stroke-width="1.7083" stroke-linecap="round" stroke-linejoin="round" stroke-dasharray="2.6242,4.3736" d="
			M34.88,206.785v-33.074c0,0-1.375-9.442,8.911-9.442c9,0,75.852,0,92.444,0"/>
		<path fill="none" stroke="#939393" stroke-width="1.7083" stroke-linecap="round" stroke-linejoin="round" d="M138.582,164.269
			c0.893,0,1.372,0,1.372,0"/>
	</g>
</g>
<path fill="none" stroke="#939393" stroke-width="1.7083" stroke-linecap="round" stroke-linejoin="round" stroke-miterlimit="10" stroke-dasharray="2.5624,4.2706" d="
	M295.246,40.125h-37.033c0,0-6.858,0.921-6.858,9.443s0,43.07,0,43.07"/>
<path fill="none" stroke="#939393" stroke-width="1.7083" stroke-linecap="round" stroke-linejoin="round" stroke-miterlimit="10" stroke-dasharray="2.5624,4.2706" d="
	M145.286,37.36v19.961c0,0-1.828,8.906,7.317,9.06c9.144,0.154,51.51,0,51.51,0s6.401,0.154,6.401,6.91c0,6.757,0,20.882,0,20.882"
	/>
<line fill="none" stroke="#939393" stroke-width="1.7083" stroke-linecap="round" stroke-linejoin="round" stroke-miterlimit="10" stroke-dasharray="2.5624,4.2706" x1="420.674" y1="163.438" x2="287.479" y2="162.362"/>
<path fill="none" stroke="#939393" stroke-width="1.7083" stroke-linecap="round" stroke-linejoin="round" stroke-miterlimit="10" stroke-dasharray="2.5624,4.2706" d="
	M152.363,297.774h40.168c0,0,10.667,1.231,10.667-7.059c0-8.293,0-86.54,0-86.54"/>
<path fill="none" stroke="#939393" stroke-width="1.7083" stroke-linecap="round" stroke-linejoin="round" stroke-miterlimit="10" stroke-dasharray="2.5624,4.2706" d="
	M20.17,94.48v26.41c0,0-2.286,7.678,9.905,7.678c12.192,0,111.402,0,111.402,0"/>
<path fill="#C4C4C4" d="M430.863,56.096c0,1.355-1.379,1.921-2.725,1.921H293.11c-1.345,0-1.942-0.566-1.942-1.921V24.153
	c0-1.356,0.596-2.67,1.942-2.67h135.028c1.346,0,2.725,1.315,2.725,2.67V56.096z"/>
<rect x="134.28" y="87.031" fill="#353333" width="176.231" height="93.488"/>
<rect x="133.963" y="179.789" fill="#FFFFFF" width="177.179" height="43.056"/>
<rect x="162.89" y="187.147" opacity="0.5" fill="#CF2A28" enable-background="new    " width="115.517" height="6.91"/>
<ellipse fill="#D7D7D7" cx="148.337" cy="195.593" rx="8.383" ry="8.445"/>
<rect x="162.89" y="201.317" fill="#D7D7D7" width="69.645" height="5.714"/>
<rect x="162.89" y="210.53" fill="#E8E8E8" width="42.215" height="3.718"/>
<ellipse fill="#C13A16" cx="34.818" cy="216.397" rx="20.726" ry="20.883"/>
<ellipse fill="#2B86AA" cx="422.274" cy="163.438" rx="20.726" ry="20.883"/>
<radialGradient id="SVGID_1_" cx="644.6204" cy="595.713" r="24.3584" gradientTransform="matrix(0.8509 0 0 0.8573 -403.2215 -489.6968)" gradientUnits="userSpaceOnUse">
	<stop  offset="0" style="stop-color:#FF711E"/>
	<stop  offset="1" style="stop-color:#FF2F16"/>
</radialGradient>
<ellipse fill="url(#SVGID_1_)" cx="145.286" cy="21.008" rx="20.726" ry="20.883"/>
<g>
	<path fill="#FFFFFF" d="M222.395,132.634c-8.147,0-14.753,6.655-14.753,14.864c0,8.21,6.604,14.865,14.753,14.865
		s14.753-6.655,14.753-14.865C237.148,139.289,230.544,132.634,222.395,132.634z M222.395,158.525
		c-6.046,0-10.945-4.937-10.945-11.027s4.899-11.026,10.945-11.026c6.043,0,10.945,4.937,10.945,11.026
		C233.34,153.587,228.44,158.525,222.395,158.525z"/>
	<path fill="#FFFFFF" d="M218.126,141.301c0,0.406,0,12.395,0,12.395l10.614-6.096L218.126,141.301z"/>
</g>
<rect x="302.446" y="30.682" fill="#939393" width="91.668" height="6.68"/>
<rect x="302.446" y="42.888" fill="#939393" width="116.355" height="6.68"/>
<g id="Dropbox_2_">
	<g opacity="0.75">
		<path fill="#135A70" d="M430.514,161.524l-7.92-4.86l4.994-4.165l7.924,4.913L430.514,161.524z M427.535,170.711l7.605-4.486
			l-4.574-3.899l-7.446,4.54L427.535,170.711z M421.428,166.866l-7.446-4.54l-4.573,3.899l7.606,4.486L421.428,166.866z
			 M414.356,170.07v1.441l7.6,4.699v-8.918l-5.047,4.165L414.356,170.07z M430.194,170.07l-2.551,1.387l-5.048-4.165v8.918
			l7.599-4.699V170.07z M421.956,156.664l-4.994-4.165l-7.925,4.913l4.999,4.112L421.956,156.664z"/>
	</g>
	<g>
		<path fill="#FFFFFF" d="M430.514,160.607l-7.92-4.859l4.994-4.165l7.924,4.913L430.514,160.607z M427.535,169.793l7.605-4.486
			l-4.574-3.899l-7.446,4.54L427.535,169.793z M421.428,165.947l-7.446-4.54l-4.573,3.899l7.606,4.486L421.428,165.947z
			 M414.356,169.153v1.441l7.6,4.699v-8.918l-5.047,4.165L414.356,169.153z M430.194,169.153l-2.551,1.387l-5.048-4.165v8.918
			l7.599-4.699V169.153z M421.956,155.746l-4.994-4.165l-7.925,4.913l4.999,4.112L421.956,155.746z"/>
	</g>
</g>
<ellipse fill="#C4C4C4" cx="21.288" cy="75.628" rx="20.726" ry="20.883"/>
<ellipse fill="#2D2220" cx="151.861" cy="296.242" rx="20.726" ry="20.883"/>
<path id="SlideShare_2_" fill="#FFFFFF" d="M164.122,295.097c-0.966,1.867-2.984,2.435-4.957,3.477c0,1.469,0,3.46,0,4.029
	c0,0.567-0.727,3.873-3.498,3.873s-3.686-1.599-3.686-2.261c0-0.323,0-2.046,0-3.733c-0.272-0.067-0.541-0.16-0.797-0.296
	c0,1.518,0,3.367,0,4.029c0,0.664-1.034,1.611-2.395,1.611c-1.361,0-3.991-1.942-3.991-3.223c0-1.279,0-4.363,0-4.363
	s-3.644-1.437-4.49-2.481c-0.846-1.043-1.268-1.47-1.033-2.084c0.226-0.596,2.958,1.705,4.554,2.084
	c1.598,0.38,4.368,0.57,5.543,0.523c1.176-0.048,1.832,0.426,2.489,1.041c0.034,0.032,0.075,0.068,0.118,0.103
	c0-0.284,0-0.464,0-0.464c0-0.568,1.502-0.806,2.395-0.806s3.52,0,3.99,0s4.11-1.202,4.957-2.151
	C164.168,293.059,165.03,293.342,164.122,295.097z M155.708,294.843c1.543,0,2.794-1.263,2.794-2.821s-1.251-2.821-2.794-2.821
	s-2.794,1.263-2.794,2.821C152.914,293.58,154.166,294.843,155.708,294.843z M148.346,294.843c1.544,0,2.795-1.263,2.795-2.821
	s-1.251-2.821-2.795-2.821c-1.542,0-2.793,1.263-2.793,2.821C145.554,293.58,146.804,294.843,148.346,294.843z"/>
<g>
	<g>
		<path fill="#FFFFFF" d="M132.29,20.868c-0.06,0-0.11,0.048-0.118,0.115l-0.28,2.554l0.28,2.498
			c0.008,0.067,0.058,0.115,0.118,0.115s0.108-0.047,0.118-0.115l0.318-2.498l-0.318-2.554
			C132.399,20.915,132.35,20.868,132.29,20.868z"/>
		<path fill="#FFFFFF" d="M131.239,21.846c-0.059,0-0.106,0.046-0.114,0.111l-0.208,1.579l0.208,1.553
			c0.008,0.065,0.055,0.111,0.114,0.111c0.058,0,0.104-0.045,0.114-0.111l0.246-1.553l-0.246-1.58
			C131.343,21.891,131.296,21.846,131.239,21.846z"/>
		<path fill="#FFFFFF" d="M133.408,20.367c-0.075,0-0.135,0.059-0.143,0.14L133,23.537l0.265,2.92
			c0.008,0.081,0.067,0.14,0.143,0.14c0.074,0,0.134-0.059,0.142-0.139l0.302-2.92l-0.301-3.03
			C133.541,20.425,133.481,20.367,133.408,20.367z"/>
		<path fill="#FFFFFF" d="M134.534,20.26c-0.088,0-0.16,0.071-0.167,0.164l-0.251,3.114l0.251,3.012
			c0.007,0.093,0.079,0.164,0.167,0.164c0.087,0,0.159-0.07,0.167-0.164l0.285-3.012l-0.285-3.114
			C134.693,20.33,134.621,20.26,134.534,20.26z"/>
		<polygon fill="#FFFFFF" points="135.861,26.574 135.861,26.575 135.861,26.575 		"/>
		<path fill="#FFFFFF" d="M135.861,20.648c-0.007-0.106-0.089-0.187-0.191-0.187c-0.103,0-0.185,0.081-0.191,0.189l-0.237,2.888
			l0.237,3.037c0.006,0.107,0.088,0.188,0.191,0.188c0.101,0,0.184-0.081,0.191-0.188l0.268-3.037L135.861,20.648z"/>
		<path fill="#FFFFFF" d="M136.814,18.626c-0.115,0-0.21,0.094-0.215,0.213l-0.222,4.699l0.222,3.037
			c0.006,0.119,0.1,0.212,0.215,0.212c0.114,0,0.208-0.094,0.215-0.213v0.001l0.252-3.037l-0.252-4.699
			C137.023,18.72,136.928,18.626,136.814,18.626z"/>
		<path fill="#FFFFFF" d="M137.951,17.544c-0.129,0-0.234,0.104-0.24,0.237l-0.208,5.774l0.208,3.018
			c0.005,0.132,0.111,0.236,0.24,0.236c0.128,0,0.233-0.104,0.239-0.237v0.002l0.235-3.019l-0.235-5.774
			C138.184,17.648,138.079,17.544,137.951,17.544z"/>
		<path fill="#FFFFFF" d="M139.131,17.022c-0.143,0-0.259,0.115-0.264,0.262l-0.194,6.256l0.194,2.987
			c0.005,0.145,0.121,0.26,0.264,0.26c0.142,0,0.258-0.115,0.264-0.262v0.002l0.219-2.987l-0.218-6.256
			C139.389,17.137,139.273,17.022,139.131,17.022z"/>
		<path fill="#FFFFFF" d="M140.592,17.074c-0.005-0.161-0.132-0.286-0.288-0.286c-0.157,0-0.284,0.126-0.288,0.287l-0.179,6.466
			l0.179,2.968c0.004,0.159,0.131,0.285,0.288,0.285c0.156,0,0.283-0.126,0.288-0.286l0.202-2.967L140.592,17.074z"/>
		<polygon fill="#FFFFFF" points="140.592,26.507 140.592,26.507 140.591,26.509 		"/>
		<path fill="#FFFFFF" d="M141.485,16.929c-0.171,0-0.309,0.137-0.313,0.311l-0.165,6.302l0.165,2.94
			c0.004,0.173,0.141,0.309,0.312,0.309c0.171,0,0.308-0.137,0.312-0.311v0.002l0.185-2.941l-0.185-6.302
			C141.793,17.065,141.655,16.929,141.485,16.929z"/>
		<path fill="#FFFFFF" d="M142.675,17.134c-0.185,0-0.333,0.147-0.337,0.335l-0.15,6.071l0.151,2.921
			c0.003,0.186,0.151,0.333,0.337,0.333c0.185,0,0.333-0.147,0.337-0.335v0.002l0.169-2.921l-0.169-6.072
			C143.008,17.282,142.86,17.134,142.675,17.134z"/>
		<path fill="#FFFFFF" d="M144.075,16.019c-0.057-0.039-0.126-0.062-0.199-0.062c-0.071,0-0.138,0.022-0.194,0.059
			c-0.098,0.064-0.165,0.175-0.166,0.301l-0.001,0.068l-0.135,7.155c0,0.004,0.136,2.904,0.136,2.904
			c0,0.004,0.001,0.008,0.001,0.012c0.004,0.081,0.035,0.156,0.084,0.215c0.066,0.08,0.166,0.131,0.276,0.131
			c0.098,0,0.187-0.04,0.253-0.105c0.065-0.065,0.107-0.155,0.108-0.254l0.015-0.287l0.137-2.613l-0.152-7.226
			C144.234,16.193,144.17,16.083,144.075,16.019z"/>
		<polygon fill="#FFFFFF" points="144.236,26.444 144.236,26.444 144.236,26.445 144.236,26.443 144.236,26.442 144.236,26.443 		
			"/>
		<path fill="#FFFFFF" d="M145.266,15.333c-0.058-0.035-0.125-0.055-0.196-0.055c-0.092,0-0.177,0.033-0.243,0.088
			c-0.085,0.071-0.141,0.177-0.142,0.296l-0.001,0.04l-0.157,7.841l0.08,1.449l0.078,1.41c0.003,0.209,0.175,0.381,0.385,0.381
			c0.209,0,0.382-0.172,0.385-0.384v0.003l0,0l0.171-2.86l0,0l-0.171-7.881C145.453,15.523,145.377,15.401,145.266,15.333z"/>
		<path fill="#FFFFFF" d="M155.859,19.813c-0.479,0-0.937,0.097-1.353,0.272c-0.278-3.152-2.922-5.626-6.147-5.626
			c-0.789,0-1.558,0.155-2.238,0.418c-0.264,0.102-0.334,0.207-0.337,0.411v11.103c0.003,0.214,0.169,0.381,0.378,0.401
			c0.009,0.001,9.697,0,9.697,0c1.932,0,3.498-1.549,3.498-3.481C159.357,21.379,157.791,19.813,155.859,19.813z"/>
	</g>
</g>
<g>
	<g>
		<path id="SVGID_2_" fill="#636363" d="M32.632,76.052v-9.233c0-0.578-0.497-1.046-1.109-1.046h-4.73
			c-0.612,0-1.106,0.468-1.106,1.046v9.233c0,3.374-0.934,6.024-4.497,6.024c-3.566,0-4.41-2.707-4.41-6.082v-9.231
			c0-0.577-0.497-1.047-1.106-1.047l-4.79,0.059c-0.612,0-1.107,0.468-1.107,1.046v9.233c0,6.899,4.069,12.594,11.362,12.594
			C28.428,88.645,32.632,82.95,32.632,76.052L32.632,76.052z M26.853,71.107v-3.153h4.524v3.153H26.853L26.853,71.107z
			 M10.972,71.107v-3.211l4.674,0.058v3.153H10.972L10.972,71.107z"/>
	</g>
	<g>
		<defs>
			<path id="SVGID_3_" d="M32.632,76.052v-9.233c0-0.578-0.497-1.046-1.109-1.046h-4.73c-0.612,0-1.106,0.468-1.106,1.046v9.233
				c0,3.374-0.934,6.024-4.497,6.024c-3.566,0-4.41-2.707-4.41-6.082v-9.231c0-0.577-0.497-1.047-1.106-1.047l-4.79,0.059
				c-0.612,0-1.107,0.468-1.107,1.046v9.233c0,6.899,4.069,12.594,11.362,12.594C28.428,88.645,32.632,82.95,32.632,76.052
				L32.632,76.052z M26.853,71.107v-3.153h4.524v3.153H26.853L26.853,71.107z M10.972,71.107v-3.211l4.674,0.058v3.153H10.972
				L10.972,71.107z"/>
		</defs>
		<clipPath id="SVGID_4_">
			<use xlink:href="#SVGID_3_"  overflow="visible"/>
		</clipPath>
		<rect x="9.5" y="66" clip-path="url(#SVGID_4_)" fill="#636363" width="23" height="23"/>
	</g>
</g>
<g>
	<path fill="#777777" d="M200.817,109.35c0,3.031-0.863,5.352-2.588,6.964c-1.725,1.612-4.217,2.418-7.474,2.418h-5.213v-18.411
		h5.78c3.005,0,5.34,0.793,7.002,2.38C199.986,104.288,200.817,106.504,200.817,109.35z M196.762,109.451
		c0-3.954-1.747-5.931-5.239-5.931h-2.078v11.988h1.675C194.881,115.508,196.762,113.489,196.762,109.451z"/>
	<path fill="#777777" d="M215.235,118.731h-10.603V100.32h10.603v3.199h-6.699v4.042h6.233v3.199h-6.233v4.747h6.699V118.731z"/>
	<path fill="#777777" d="M226.871,118.731l-4.433-14.444h-0.113c0.16,2.938,0.239,4.899,0.239,5.881v8.563h-3.488V100.32h5.314
		l4.357,14.079h0.076l4.622-14.079h5.314v18.411h-3.639v-8.714c0-0.411,0.006-0.886,0.019-1.423c0.013-0.537,0.069-1.964,0.17-4.282
		h-0.113l-4.747,14.419C230.449,118.731,226.871,118.731,226.871,118.731z"/>
	<path fill="#777777" d="M260.103,109.501c0,3.047-0.756,5.39-2.267,7.027s-3.677,2.456-6.498,2.456s-4.987-0.819-6.498-2.456
		s-2.267-3.988-2.267-7.052s0.758-5.404,2.273-7.02s3.688-2.424,6.517-2.424s4.993,0.814,6.492,2.443
		S260.103,106.445,260.103,109.501z M246.667,109.501c0,2.057,0.39,3.606,1.171,4.647s1.948,1.561,3.501,1.561
		c3.115,0,4.672-2.069,4.672-6.208c0-4.147-1.549-6.221-4.647-6.221c-1.553,0-2.724,0.523-3.513,1.568
		C247.061,105.893,246.667,107.444,246.667,109.501z"/>
</g>
<polygon fill="#E5382F" points="146.5,191.106 146.5,200.041 151.96,195.574 "/>
<path id="YouTube_2_" fill="#FFFFFF" d="M42.628,221.814h-1.476l0.007-0.857c0-0.381,0.313-0.692,0.695-0.692h0.094
	c0.383,0,0.697,0.312,0.697,0.692L42.628,221.814z M37.094,219.977c-0.375,0-0.681,0.251-0.681,0.559v4.168
	c0,0.307,0.306,0.558,0.681,0.558c0.376,0,0.682-0.251,0.682-0.558v-4.168C37.776,220.229,37.47,219.977,37.094,219.977z
	 M46.081,217.646v7.928c0,1.902-1.649,3.458-3.665,3.458H27.344c-2.017,0-3.665-1.556-3.665-3.458v-7.928
	c0-1.902,1.649-3.458,3.665-3.458h15.072C44.431,214.188,46.081,215.744,46.081,217.646z M28.349,226.435l-0.001-8.352l1.869,0.001
	v-1.237l-4.98-0.008v1.217l1.555,0.004v8.375H28.349z M33.95,219.328h-1.558v4.46c0,0.645,0.039,0.968-0.002,1.082
	c-0.127,0.346-0.696,0.713-0.918,0.037c-0.038-0.118-0.005-0.475-0.005-1.088l-0.006-4.491h-1.549l0.005,4.42
	c0.001,0.677-0.015,1.183,0.005,1.412c0.038,0.405,0.024,0.878,0.401,1.148c0.701,0.505,2.044-0.075,2.38-0.797l-0.003,0.921
	l1.251,0.001v-7.105H33.95z M38.933,224.435l-0.003-3.712c-0.001-1.415-1.059-2.262-2.496-1.117l0.006-2.76l-1.556,0.002
	l-0.008,9.525l1.279-0.019l0.117-0.593C37.907,227.262,38.935,226.234,38.933,224.435z M43.808,223.943l-1.168,0.006
	c-0.001,0.046-0.002,0.1-0.003,0.158v0.652c0,0.349-0.288,0.633-0.638,0.633H41.77c-0.351,0-0.638-0.284-0.638-0.633v-0.072v-0.717
	v-0.925h2.674v-1.007c0-0.736-0.019-1.471-0.079-1.892c-0.191-1.33-2.059-1.542-3.002-0.86c-0.296,0.213-0.522,0.497-0.654,0.88
	c-0.133,0.383-0.198,0.905-0.198,1.569v2.213C39.872,227.628,44.341,227.107,43.808,223.943z M37.817,211.927
	c0.08,0.195,0.205,0.354,0.375,0.473c0.167,0.118,0.382,0.177,0.637,0.177c0.225,0,0.424-0.061,0.597-0.186s0.319-0.311,0.437-0.559
	l-0.029,0.611h1.736v-7.384h-1.367v5.747c0,0.311-0.257,0.566-0.57,0.566c-0.312,0-0.569-0.255-0.569-0.566v-5.747h-1.426v4.98
	c0,0.634,0.011,1.057,0.03,1.272C37.688,211.525,37.737,211.729,37.817,211.927z M32.555,207.757c0-0.709,0.06-1.262,0.177-1.661
	c0.118-0.398,0.331-0.717,0.638-0.958c0.307-0.242,0.699-0.363,1.177-0.363c0.401,0,0.746,0.079,1.033,0.233
	c0.289,0.155,0.512,0.357,0.666,0.606c0.158,0.25,0.264,0.506,0.321,0.769c0.058,0.266,0.087,0.668,0.087,1.209v1.867
	c0,0.685-0.027,1.189-0.081,1.509c-0.053,0.321-0.166,0.618-0.342,0.897c-0.173,0.276-0.397,0.482-0.669,0.614
	c-0.274,0.133-0.587,0.198-0.942,0.198c-0.396,0-0.729-0.055-1.004-0.169c-0.275-0.113-0.488-0.285-0.64-0.512
	c-0.153-0.228-0.261-0.505-0.326-0.828s-0.097-0.809-0.097-1.456v-1.955H32.555z M33.915,210.69c0,0.418,0.312,0.76,0.69,0.76
	c0.379,0,0.689-0.341,0.689-0.76v-3.931c0-0.418-0.31-0.759-0.689-0.759c-0.379,0-0.69,0.341-0.69,0.759V210.69z M29.109,212.675
	h1.638l0.002-5.663l1.936-4.851h-1.792l-1.029,3.604l-1.044-3.613h-1.773l2.059,4.864L29.109,212.675z"/>
<g>
	<g opacity="0.72">
		<path fill="#440C0C" d="M443.001,281.533c0,11.498-9.321,20.819-20.819,20.819H296.57c-11.498,0-20.819-9.321-20.819-20.819
			v-5.552c0-11.498,9.321-20.82,20.819-20.82h125.611c11.498,0,20.819,9.321,20.819,20.82V281.533z"/>
	</g>
	<g>
		<linearGradient id="SVGID_5_" gradientUnits="userSpaceOnUse" x1="359.376" y1="256.5624" x2="359.376" y2="296.2888">
			<stop  offset="0" style="stop-color:#F43B3B"/>
			<stop  offset="0.5" style="stop-color:#E33E36"/>
			<stop  offset="1" style="stop-color:#C62222"/>
		</linearGradient>
		<path fill="url(#SVGID_5_)" d="M443.001,280.533c0,11.498-9.321,20.819-20.819,20.819H296.57
			c-11.498,0-20.819-9.321-20.819-20.819v-5.552c0-11.498,9.321-20.82,20.819-20.82h125.611c11.498,0,20.819,9.321,20.819,20.82
			V280.533z"/>
	</g>
</g>
<g>
	<g>
		<path fill="#E54848" d="M410.395,278.757c0,6.203,5.029,11.231,11.232,11.231c6.203,0,11.231-5.029,11.231-11.231
			c0-6.204-5.029-11.231-11.231-11.231C415.424,267.525,410.395,272.553,410.395,278.757z M430.417,278.757
			c0,4.854-3.935,8.789-8.79,8.789c-4.855,0-8.79-3.935-8.79-8.789c0-4.855,3.935-8.79,8.79-8.79
			C426.481,269.967,430.417,273.902,430.417,278.757z M416.927,276.559v4.395h4.993v2.747l4.651-4.944l-4.651-4.945v2.747H416.927z"
			/>
	</g>
	<g>
		<g>
			<path fill="#3D0B0B" d="M410.395,277.757c0,6.203,5.029,11.231,11.232,11.231c6.203,0,11.231-5.029,11.231-11.231
				c0-6.204-5.029-11.231-11.231-11.231C415.424,266.525,410.395,271.553,410.395,277.757z M430.417,277.757
				c0,4.854-3.935,8.789-8.79,8.789c-4.855,0-8.79-3.935-8.79-8.789c0-4.855,3.935-8.79,8.79-8.79
				C426.481,268.967,430.417,272.902,430.417,277.757z M416.927,275.559v4.395h4.993v2.747l4.651-4.944l-4.651-4.945v2.747H416.927z
				"/>
		</g>
	</g>
</g>
<g>
	<path fill="#FFFFFF" d="M294.581,273.76c-0.96,0-1.703,0.361-2.229,1.082c-0.527,0.722-0.79,1.727-0.79,3.016
		c0,2.682,1.006,4.022,3.02,4.022c0.844,0,1.867-0.211,3.068-0.634v2.14c-0.987,0.411-2.09,0.616-3.308,0.616
		c-1.749,0-3.088-0.53-4.015-1.592c-0.927-1.061-1.391-2.584-1.391-4.569c0-1.251,0.228-2.347,0.684-3.287
		c0.455-0.94,1.109-1.661,1.962-2.163s1.853-0.753,2.999-0.753c1.168,0,2.342,0.282,3.521,0.848l-0.822,2.072
		c-0.45-0.214-0.902-0.399-1.357-0.559C295.466,273.84,295.02,273.76,294.581,273.76z"/>
	<path fill="#FFFFFF" d="M302.759,279.223v4.615h-2.551v-12.027h3.505c1.634,0,2.844,0.297,3.628,0.893
		c0.784,0.595,1.177,1.498,1.177,2.711c0,0.707-0.195,1.337-0.585,1.888c-0.389,0.551-0.94,0.983-1.653,1.296
		c1.81,2.704,2.989,4.45,3.538,5.24h-2.83l-2.871-4.615H302.759z M302.759,277.149h0.822c0.807,0,1.401-0.134,1.785-0.403
		c0.384-0.269,0.576-0.69,0.576-1.267c0-0.57-0.196-0.977-0.589-1.218c-0.392-0.241-0.999-0.361-1.822-0.361h-0.772V277.149z"/>
	<path fill="#FFFFFF" d="M318.257,283.838h-6.927v-12.027h6.927v2.09h-4.376v2.641h4.072v2.089h-4.072v3.102h4.376V283.838z"/>
	<path fill="#FFFFFF" d="M328.13,283.838l-0.872-2.863h-4.385l-0.872,2.863h-2.748l4.245-12.077h3.118l4.261,12.077H328.13z
		 M326.648,278.836c-0.806-2.594-1.26-4.062-1.361-4.401s-0.174-0.608-0.218-0.806c-0.181,0.701-0.699,2.438-1.555,5.207H326.648z"
		/>
	<path fill="#FFFFFF" d="M337.03,283.838h-2.55v-9.905h-3.267v-2.122h9.083v2.122h-3.267V283.838z"/>
	<path fill="#FFFFFF" d="M349.074,283.838h-6.927v-12.027h6.927v2.09h-4.376v2.641h4.072v2.089h-4.072v3.102h4.376V283.838z"/>
	<path fill="#FFFFFF" d="M366.631,283.838h-3.241l-5.232-9.099h-0.073c0.104,1.606,0.156,2.753,0.156,3.438v5.66h-2.279v-12.027
		h3.217l5.224,9.008h0.058c-0.082-1.562-0.123-2.668-0.123-3.315v-5.692h2.295V283.838z"/>
	<path fill="#FFFFFF" d="M380.575,277.808c0,1.991-0.493,3.521-1.48,4.591s-2.402,1.604-4.245,1.604s-3.258-0.534-4.245-1.604
		s-1.481-2.605-1.481-4.607s0.495-3.53,1.485-4.586s2.409-1.584,4.258-1.584c1.848,0,3.262,0.532,4.24,1.596
		C380.086,274.281,380.575,275.812,380.575,277.808z M371.797,277.808c0,1.344,0.256,2.355,0.766,3.036
		c0.51,0.68,1.272,1.02,2.287,1.02c2.034,0,3.052-1.352,3.052-4.056c0-2.709-1.012-4.064-3.035-4.064
		c-1.015,0-1.78,0.342-2.296,1.024S371.797,276.464,371.797,277.808z"/>
	<path fill="#FFFFFF" d="M394.783,283.838h-2.904l-1.629-6.318c-0.06-0.225-0.163-0.689-0.308-1.395
		c-0.146-0.704-0.229-1.178-0.251-1.419c-0.033,0.296-0.115,0.772-0.247,1.428s-0.233,1.123-0.305,1.402l-1.62,6.302h-2.896
		l-3.068-12.027h2.509l1.539,6.564c0.269,1.213,0.463,2.263,0.584,3.151c0.033-0.312,0.108-0.797,0.227-1.452
		c0.117-0.655,0.229-1.164,0.333-1.526l1.752-6.737h2.41l1.753,6.737c0.076,0.302,0.173,0.763,0.288,1.382
		c0.115,0.62,0.202,1.152,0.263,1.597c0.055-0.428,0.143-0.961,0.264-1.601c0.12-0.639,0.23-1.155,0.329-1.551l1.53-6.564h2.509
		L394.783,283.838z"/>
</g>
</svg>
