<?xml version="1.0" encoding="utf-8"?>
<!-- Generator: Adobe Illustrator 16.2.1, SVG Export Plug-In . SVG Version: 6.00 Build 0)  -->
<!DOCTYPE svg PUBLIC "-//W3C//DTD SVG 1.1//EN" "http://www.w3.org/Graphics/SVG/1.1/DTD/svg11.dtd">
<svg version="1.1" id="Layer_1" xmlns="http://www.w3.org/2000/svg" xmlns:xlink="http://www.w3.org/1999/xlink" x="0px" y="0px"
	 width="460px" height="295px" viewBox="0 0 460 295" enable-background="new 0 0 460 295" xml:space="preserve">
<g>
	<g>
		
			<line fill="none" stroke="#939393" stroke-width="1.7083" stroke-linecap="round" stroke-linejoin="round" x1="80.498" y1="198.099" x2="80.498" y2="196.817"/>
		
			<path fill="none" stroke="#939393" stroke-width="1.7083" stroke-linecap="round" stroke-linejoin="round" stroke-dasharray="2.6242,4.3736" d="
			M80.498,192.443v-30.779c0,0-1.28-8.787,8.293-8.787c8.375,0,70.588,0,86.028,0"/>
		<path fill="none" stroke="#939393" stroke-width="1.7083" stroke-linecap="round" stroke-linejoin="round" d="M177.003,152.877
			c0.831,0,1.277,0,1.277,0"/>
	</g>
</g>
<path fill="none" stroke="#939393" stroke-width="1.7083" stroke-linecap="round" stroke-linejoin="round" stroke-miterlimit="10" stroke-dasharray="2.5624,4.2706" d="
	M322.795,37.349h-34.463c0,0-6.382,0.857-6.382,8.788c0,7.931,0,40.081,0,40.081"/>
<path fill="none" stroke="#939393" stroke-width="1.7083" stroke-linecap="round" stroke-linejoin="round" stroke-miterlimit="10" stroke-dasharray="2.5624,4.2706" d="
	M183.242,34.776v18.576c0,0-1.701,8.288,6.809,8.431c8.509,0.143,47.935,0,47.935,0s5.957,0.143,5.957,6.43
	c0,6.288,0,19.433,0,19.433"/>
<path fill="none" stroke="#939393" stroke-width="1.7083" stroke-linecap="round" stroke-linejoin="round" stroke-miterlimit="10" stroke-dasharray="2.5624,4.2706" d="
	M349.812,260.688h-44.887c0,0-6.595-0.857-6.595-9.216c0-8.359,0-65.618,0-65.618"/>
<line fill="none" stroke="#939393" stroke-width="1.7083" stroke-linecap="round" stroke-linejoin="round" stroke-miterlimit="10" stroke-dasharray="2.5624,4.2706" x1="439.518" y1="152.104" x2="315.567" y2="151.103"/>
<path fill="none" stroke="#939393" stroke-width="1.7083" stroke-linecap="round" stroke-linejoin="round" stroke-miterlimit="10" stroke-dasharray="2.5624,4.2706" d="
	M189.828,277.117h37.38c0,0,9.927,1.146,9.927-6.569c0-7.717,0-80.534,0-80.534"/>
<path fill="none" stroke="#939393" stroke-width="1.7083" stroke-linecap="round" stroke-linejoin="round" stroke-miterlimit="10" stroke-dasharray="2.5624,4.2706" d="
	M66.809,87.932v24.577c0,0-2.127,7.145,9.218,7.145c11.346,0,103.671,0,103.671,0"/>
<path fill="#C4C4C4" d="M449,52.212c0,1.261-1.283,1.788-2.536,1.788H320.807c-1.252,0-1.807-0.527-1.807-1.788V22.485
	c0-1.262,0.555-2.485,1.807-2.485h125.657c1.253,0,2.536,1.224,2.536,2.485V52.212z"/>
<path fill="#D7D7D7" d="M130,95.937c0,1.262-0.528,2.063-1.781,2.063H2.562C1.31,98,0,97.198,0,95.937V66.21
	C0,64.949,1.31,64,2.562,64h125.657c1.252,0,1.781,0.949,1.781,2.21V95.937z"/>
<rect x="173" y="81" fill="#353333" width="164" height="87"/>
<rect x="172.705" y="167.32" fill="#FFFFFF" width="164.883" height="40.068"/>
<rect x="178.28" y="174.168" opacity="0.5" fill="#CF2A28" width="107.5" height="6.43"/>
<ellipse fill="#D7D7D7" cx="186.081" cy="194.386" rx="7.801" ry="7.859"/>
<rect x="199.624" y="187.354" fill="#D7D7D7" width="64.812" height="5.317"/>
<rect x="199.624" y="195.928" fill="#E8E8E8" width="39.285" height="3.46"/>
<ellipse fill="#C13A16" cx="80.441" cy="201.388" rx="19.288" ry="19.434"/>
<ellipse fill="#2B86AA" cx="441.007" cy="152.104" rx="19.288" ry="19.434"/>
<radialGradient id="SVGID_1_" cx="91.2559" cy="-41.0176" r="22.6672" gradientTransform="matrix(0.8509 0 0 0.8573 105.5908 54.7246)" gradientUnits="userSpaceOnUse">
	<stop  offset="0" style="stop-color:#7BC14D"/>
	<stop  offset="1" style="stop-color:#609B3A"/>
</radialGradient>
<ellipse fill="url(#SVGID_1_)" cx="183.242" cy="19.559" rx="19.288" ry="19.434"/>
<g>
	<path fill="#FFFFFF" d="M255.146,118.837c-7.582,0-13.729,6.193-13.729,13.832c0,7.64,6.146,13.833,13.729,13.833
		s13.729-6.193,13.729-13.833C268.875,125.03,262.729,118.837,255.146,118.837z M255.146,142.931
		c-5.626,0-10.185-4.594-10.185-10.262s4.559-10.261,10.185-10.261c5.624,0,10.185,4.594,10.185,10.261
		S260.771,142.931,255.146,142.931z"/>
	<path fill="#FFFFFF" d="M251.173,126.902c0,0.378,0,11.535,0,11.535l9.877-5.673L251.173,126.902z"/>
</g>
<rect x="329.495" y="28.561" fill="#939393" width="85.306" height="6.216"/>
<rect x="329.495" y="39.92" fill="#939393" width="108.28" height="6.216"/>
<g id="Evernote_3_">
	<g opacity="0.75">
		<path fill-rule="evenodd" clip-rule="evenodd" fill="#548732" d="M178.172,13.951l-3.654-0.004l4.578-4.64l0.001,3.743
			L178.172,13.951z M191.116,12.107c-0.39-0.676-2.428-1.455-3.485-1.455c-1.057,0-2.725,0-2.725,0s-0.874-1.596-2.932-1.596
			c-2.059,0-1.921,0.924-1.921,1.713v3.191l-0.933,0.992h-4.309c0,0-1.214,0.809-1.214,2.558s0.539,7.841,4.155,8.405
			c4.277,0.667,5.01-1.335,5.01-1.576c0-1.015,0.025-2.552,0.025-2.552s1.253,2.412,3.145,2.412c1.893,0,2.992,1.095,2.992,2.223
			c0,1.129,0,2.086,0,2.086s-0.07,1.306-1.182,1.306c-1.114,0-2.374,0-2.374,0s-0.78-0.611-0.78-1.457
			c0-0.845,0.382-1.075,0.826-1.075s0.811,0.052,0.811,0.052v-1.778c0,0-3.584-0.023-3.584,2.741c0,2.763,1.875,3.473,3.376,3.473
			c1.502,0,2.448,0,2.448,0s4.419-0.572,4.419-9.369C192.886,13.603,191.506,12.784,191.116,12.107z M186.721,19.993
			c0,0,0.216-1.451,1.051-1.451s1.981,1.937,1.981,1.937S187.137,19.993,186.721,19.993z"/>
	</g>
	<g>
		<path fill-rule="evenodd" clip-rule="evenodd" fill="#FFFFFF" d="M178.172,13.097l-3.654-0.004l4.578-4.64l0.001,3.743
			L178.172,13.097z M191.116,11.253c-0.39-0.676-2.428-1.455-3.485-1.455c-1.057,0-2.725,0-2.725,0s-0.874-1.596-2.932-1.596
			c-2.059,0-1.921,0.924-1.921,1.713v3.191l-0.933,0.992h-4.309c0,0-1.214,0.809-1.214,2.558s0.539,7.841,4.155,8.405
			c4.277,0.667,5.01-1.335,5.01-1.576c0-1.015,0.025-2.552,0.025-2.552s1.253,2.412,3.145,2.412c1.893,0,2.992,1.095,2.992,2.223
			c0,1.129,0,2.086,0,2.086s-0.07,1.306-1.182,1.306c-1.114,0-2.374,0-2.374,0s-0.78-0.611-0.78-1.457
			c0-0.845,0.382-1.075,0.826-1.075s0.811,0.052,0.811,0.052v-1.778c0,0-3.584-0.023-3.584,2.741c0,2.763,1.875,3.473,3.376,3.473
			c1.502,0,2.448,0,2.448,0s4.419-0.572,4.419-9.369C192.886,12.749,191.506,11.93,191.116,11.253z M186.721,19.139
			c0,0,0.216-1.451,1.051-1.451s1.981,1.937,1.981,1.937S187.137,19.139,186.721,19.139z"/>
	</g>
</g>
<g id="Dropbox_2_">
	<g opacity="0.75">
		<path fill="#135A70" d="M448.675,150.323l-7.37-4.523l4.647-3.876l7.374,4.572L448.675,150.323z M445.903,158.872l7.077-4.175
			l-4.257-3.628l-6.929,4.225L445.903,158.872z M440.22,155.294l-6.929-4.225l-4.256,3.628l7.078,4.175L440.22,155.294z
			 M433.638,158.276v1.341l7.073,4.373v-8.299l-4.697,3.876L433.638,158.276z M448.377,158.276l-2.374,1.291l-4.698-3.876v8.299
			l7.072-4.373V158.276z M440.711,145.8l-4.647-3.876l-7.375,4.572l4.652,3.827L440.711,145.8z"/>
	</g>
	<g>
		<path fill="#FFFFFF" d="M448.675,149.469l-7.37-4.522l4.647-3.876l7.374,4.572L448.675,149.469z M445.903,158.018l7.077-4.175
			l-4.257-3.628l-6.929,4.225L445.903,158.018z M440.22,154.439l-6.929-4.225l-4.256,3.628l7.078,4.175L440.22,154.439z
			 M433.638,157.422v1.341l7.073,4.373v-8.299l-4.697,3.876L433.638,157.422z M448.377,157.422l-2.374,1.291l-4.698-3.876v8.299
			l7.072-4.373V157.422z M440.711,144.946l-4.647-3.876l-7.375,4.572l4.652,3.827L440.711,144.946z"/>
	</g>
</g>
<path fill="#A8A8A8" d="M447.312,291.124c0,1.894-1.524,3.429-3.403,3.429h-95.02c-1.88,0-3.403-1.535-3.403-3.429v-55.442
	c0-1.894,1.523-3.43,3.403-3.43h95.02c1.879,0,3.403,1.536,3.403,3.43V291.124z"/>
<g id="Path">
	<g opacity="0.75">
		<path fill="#962711" d="M74.099,190.673c-3.24,1.293-5.441,3.783-6.055,7.139c-0.377,2.062-0.234,4.311,0.668,6.234
			c0.202,0.427,0.442,0.84,0.729,1.221c0.139,0.185,0.289,0.363,0.45,0.531c0.289-0.103,0.566-0.231,0.831-0.384
			c1.095-0.622,1.903-1.582,2.841-2.388c-3.135-3.659,0.188-8.194,4.344-9.204c3.868-0.939,9.111,0.681,10.285,4.691
			c0.485,1.663,0.168,3.497-1.177,4.7c-0.703,0.63-1.596,1.047-2.539,1.216c-0.551,0.098-1.117,0.114-1.673,0.059
			c-0.311-0.031-0.619-0.084-0.923-0.156c-0.515-0.123-0.972-0.104-0.972-0.664c0-1.46,0-2.922,0-4.384c0-0.73,0-1.462,0-2.192
			c0-0.449,0.043-0.364-0.325-0.41c-0.292-0.036-0.582-0.065-0.875-0.089c-1.026-0.08-2.098-0.136-3.118,0.041
			c-0.38,0.065-0.404,0.005-0.404,0.421c0,0.336,0,0.674,0,1.011c0,0.818,0,1.638,0,2.456c0,2.451,0.183,4.928,0.083,7.373
			c-0.029,0.729-0.049,2.477-0.859,2.838c-0.938,0.418-1.767-0.465-2.632-0.65c0.118,1.229-0.643,3.661,0.777,4.278
			c1.302,0.569,2.8,0.779,4.173,0.312c2.876-0.982,3.806-4.208,3.441-6.857c4.44,1.337,9.231-0.898,11.13-4.938
			c1.352-2.877,0.781-6.45-1.254-8.896C87.232,189.399,79.494,188.521,74.099,190.673z"/>
	</g>
	<g>
		<path fill="#FFFFFF" d="M74.099,189.818c-3.24,1.293-5.441,3.783-6.055,7.139c-0.377,2.062-0.234,4.311,0.668,6.234
			c0.202,0.427,0.442,0.84,0.729,1.221c0.139,0.185,0.289,0.363,0.45,0.531c0.289-0.103,0.566-0.231,0.831-0.384
			c1.095-0.622,1.903-1.582,2.841-2.388c-3.135-3.659,0.188-8.194,4.344-9.204c3.868-0.939,9.111,0.681,10.285,4.691
			c0.485,1.663,0.168,3.497-1.177,4.7c-0.703,0.63-1.596,1.047-2.539,1.216c-0.551,0.098-1.117,0.114-1.673,0.059
			c-0.311-0.031-0.619-0.084-0.923-0.156c-0.515-0.123-0.972-0.104-0.972-0.664c0-1.46,0-2.922,0-4.384c0-0.73,0-1.462,0-2.192
			c0-0.449,0.043-0.364-0.325-0.41c-0.292-0.036-0.582-0.065-0.875-0.089c-1.026-0.08-2.098-0.136-3.118,0.041
			c-0.38,0.065-0.404,0.005-0.404,0.421c0,0.336,0,0.674,0,1.011c0,0.818,0,1.638,0,2.456c0,2.451,0.183,4.928,0.083,7.373
			c-0.029,0.729-0.049,2.477-0.859,2.838c-0.938,0.418-1.767-0.465-2.632-0.65c0.118,1.229-0.643,3.661,0.777,4.278
			c1.302,0.569,2.8,0.779,4.173,0.312c2.876-0.982,3.806-4.208,3.441-6.857c4.44,1.337,9.231-0.898,11.13-4.938
			c1.352-2.877,0.781-6.45-1.254-8.896C87.232,188.545,79.494,187.667,74.099,189.818z"/>
	</g>
</g>
<ellipse fill="#2D2220" cx="189.361" cy="275.691" rx="19.288" ry="19.434"/>
<g>
	<path fill="#606060" d="M407,254.213c0-1.396-1.088-2.213-2.473-2.213h-24.765c-1.386,0-2.763,0.816-2.763,2.213v18.952
		c0,1.396,1.377,2.835,2.763,2.835h24.765c1.385,0,2.473-1.439,2.473-2.835V254.213z M404,254v18h-24v-18H404z"/>
	<polygon fill="#606060" points="402,271 402,259.688 396.623,264.355 391.949,261.164 387.863,262.783 384.908,265.118 
		382,263.117 382,271 	"/>
	<ellipse fill="#606060" cx="385.904" cy="258.926" rx="1.75" ry="1.763"/>
</g>
<g>
	<path fill="#606060" d="M412.186,252h-4.813c0,0,1.029,0,1.082,2H412v18h-3.546c0.088,3-1.383,4-1.383,4h5.114
		c1.386,0,2.814-1.439,2.814-2.835v-18.952C415,252.816,413.571,252,412.186,252z"/>
</g>
<path id="SlideShare_2_" fill="#FFFFFF" d="M200.771,274.626c-0.899,1.737-2.777,2.266-4.613,3.236c0,1.367,0,3.22,0,3.749
	c0,0.528-0.677,3.604-3.255,3.604c-2.579,0-3.43-1.488-3.43-2.104c0-0.301,0-1.904,0-3.474c-0.253-0.062-0.503-0.149-0.742-0.275
	c0,1.413,0,3.133,0,3.749c0,0.618-0.962,1.499-2.229,1.499s-3.714-1.807-3.714-2.999c0-1.19,0-4.06,0-4.06s-3.391-1.337-4.178-2.309
	c-0.787-0.971-1.18-1.368-0.961-1.939c0.21-0.555,2.753,1.587,4.238,1.939c1.487,0.354,4.065,0.53,5.158,0.487
	c1.094-0.045,1.705,0.396,2.316,0.969c0.032,0.03,0.07,0.063,0.11,0.096c0-0.264,0-0.432,0-0.432c0-0.529,1.398-0.75,2.229-0.75
	c0.831,0,3.276,0,3.713,0s3.825-1.119,4.613-2.002C200.814,272.729,201.616,272.993,200.771,274.626z M192.941,274.389
	c1.436,0,2.6-1.175,2.6-2.625s-1.164-2.625-2.6-2.625s-2.6,1.175-2.6,2.625S191.506,274.389,192.941,274.389z M186.09,274.389
	c1.437,0,2.601-1.175,2.601-2.625s-1.164-2.625-2.601-2.625c-1.435,0-2.599,1.175-2.599,2.625S184.655,274.389,186.09,274.389z"/>
<rect x="6.818" y="72.286" fill="#BCBCBC" width="75.875" height="6.43"/>
<rect x="6.818" y="83.432" fill="#BCBCBC" width="108.209" height="6.43"/>
<g>
	<path fill="#777777" d="M205.325,105.508h-2.312v-4.755h-4.33v4.755h-2.318V94.492h2.318v4.318h4.33v-4.318h2.312V105.508z"/>
	<path fill="#777777" d="M218.01,99.985c0,1.824-0.449,3.225-1.347,4.205c-0.897,0.98-2.184,1.47-3.858,1.47
		c-1.676,0-2.962-0.49-3.859-1.47c-0.897-0.979-1.347-2.386-1.347-4.22c0-1.833,0.45-3.234,1.351-4.201
		c0.899-0.967,2.189-1.451,3.87-1.451c1.68,0,2.965,0.487,3.855,1.462C217.564,96.755,218.01,98.156,218.01,99.985z M210.029,99.985
		c0,1.231,0.232,2.158,0.696,2.781c0.463,0.623,1.156,0.934,2.079,0.934c1.85,0,2.774-1.238,2.774-3.715
		c0-2.481-0.92-3.722-2.76-3.722c-0.923,0-1.618,0.312-2.087,0.938S210.029,98.754,210.029,99.985z"/>
	<path fill="#777777" d="M230.926,105.508h-2.641l-1.48-5.787c-0.055-0.206-0.148-0.632-0.28-1.277
		c-0.133-0.646-0.209-1.079-0.229-1.3c-0.03,0.271-0.104,0.707-0.225,1.308c-0.119,0.6-0.212,1.028-0.276,1.285l-1.474,5.772h-2.632
		l-2.79-11.017h2.281l1.398,6.013c0.244,1.11,0.421,2.072,0.531,2.886c0.029-0.287,0.098-0.73,0.205-1.33
		c0.107-0.601,0.208-1.066,0.303-1.398l1.594-6.171h2.19l1.594,6.171c0.069,0.276,0.157,0.698,0.262,1.266
		c0.104,0.567,0.185,1.055,0.239,1.462c0.05-0.392,0.13-0.88,0.239-1.466c0.109-0.585,0.209-1.059,0.299-1.42l1.392-6.013h2.28
		L230.926,105.508z"/>
	<path fill="#777777" d="M239.062,105.508V94.492h2.318v11.017H239.062z"/>
	<path fill="#777777" d="M248.351,105.508h-2.318v-9.072h-2.969v-1.944h8.257v1.944h-2.97V105.508z"/>
	<path fill="#777777" d="M267.631,105.508h-2.641l-1.48-5.787c-0.055-0.206-0.148-0.632-0.28-1.277
		c-0.133-0.646-0.209-1.079-0.229-1.3c-0.03,0.271-0.104,0.707-0.225,1.308c-0.119,0.6-0.212,1.028-0.276,1.285l-1.474,5.772h-2.632
		l-2.79-11.017h2.281l1.398,6.013c0.244,1.11,0.421,2.072,0.531,2.886c0.029-0.287,0.098-0.73,0.205-1.33
		c0.107-0.601,0.208-1.066,0.303-1.398l1.594-6.171h2.19l1.594,6.171c0.069,0.276,0.157,0.698,0.262,1.266
		c0.104,0.567,0.185,1.055,0.239,1.462c0.05-0.392,0.13-0.88,0.239-1.466c0.109-0.585,0.209-1.059,0.299-1.42l1.392-6.013h2.28
		L267.631,105.508z"/>
	<path fill="#777777" d="M281.714,99.985c0,1.824-0.449,3.225-1.347,4.205c-0.897,0.98-2.184,1.47-3.858,1.47
		c-1.676,0-2.962-0.49-3.859-1.47c-0.897-0.979-1.347-2.386-1.347-4.22c0-1.833,0.45-3.234,1.351-4.201
		c0.899-0.967,2.189-1.451,3.87-1.451c1.68,0,2.965,0.487,3.855,1.462C281.269,96.755,281.714,98.156,281.714,99.985z
		 M273.733,99.985c0,1.231,0.232,2.158,0.696,2.781c0.463,0.623,1.156,0.934,2.079,0.934c1.85,0,2.774-1.238,2.774-3.715
		c0-2.481-0.92-3.722-2.76-3.722c-0.923,0-1.618,0.312-2.087,0.938S273.733,98.754,273.733,99.985z"/>
	<path fill="#777777" d="M286.298,101.281v4.228h-2.318V94.492h3.187c1.485,0,2.585,0.272,3.298,0.817
		c0.713,0.545,1.069,1.373,1.069,2.483c0,0.648-0.177,1.225-0.531,1.729c-0.354,0.505-0.854,0.9-1.503,1.187
		c1.646,2.477,2.717,4.077,3.216,4.8h-2.572l-2.61-4.228H286.298z M286.298,99.382h0.748c0.733,0,1.273-0.123,1.623-0.37
		c0.349-0.246,0.523-0.633,0.523-1.16c0-0.522-0.179-0.894-0.535-1.115s-0.908-0.332-1.656-0.332h-0.703V99.382z"/>
	<path fill="#777777" d="M302.886,105.508h-2.632l-2.865-4.642l-0.979,0.708v3.934h-2.318V94.492h2.318v5.041l0.913-1.296
		l2.961-3.745h2.573l-3.814,4.875L302.886,105.508z"/>
	<path fill="#777777" d="M310.716,102.449c0,0.995-0.355,1.779-1.065,2.351c-0.711,0.573-1.699,0.859-2.966,0.859
		c-1.166,0-2.198-0.221-3.096-0.663v-2.17c0.737,0.332,1.362,0.565,1.873,0.701c0.512,0.136,0.979,0.204,1.402,0.204
		c0.509,0,0.898-0.098,1.171-0.294c0.271-0.196,0.407-0.487,0.407-0.874c0-0.216-0.06-0.408-0.18-0.577
		c-0.119-0.168-0.295-0.33-0.527-0.486c-0.231-0.156-0.704-0.404-1.417-0.746c-0.668-0.316-1.169-0.62-1.503-0.912
		s-0.601-0.63-0.801-1.017c-0.199-0.387-0.299-0.839-0.299-1.356c0-0.975,0.328-1.741,0.983-2.298s1.562-0.836,2.719-0.836
		c0.568,0,1.11,0.068,1.627,0.204c0.516,0.135,1.056,0.326,1.619,0.572l-0.748,1.816c-0.584-0.241-1.066-0.41-1.447-0.505
		c-0.382-0.096-0.757-0.144-1.126-0.144c-0.438,0-0.775,0.103-1.01,0.309s-0.351,0.475-0.351,0.806c0,0.206,0.047,0.386,0.142,0.539
		s0.245,0.301,0.452,0.444c0.207,0.144,0.697,0.401,1.47,0.772c1.022,0.493,1.723,0.986,2.102,1.481
		C310.526,101.124,310.716,101.73,310.716,102.449z"/>
</g>
</svg>
