<?xml version="1.0" encoding="utf-8"?>
<!-- Generator: Adobe Illustrator 16.2.1, SVG Export Plug-In . SVG Version: 6.00 Build 0)  -->
<!DOCTYPE svg PUBLIC "-//W3C//DTD SVG 1.1//EN" "http://www.w3.org/Graphics/SVG/1.1/DTD/svg11.dtd">
<svg version="1.1" id="Layer_1" xmlns="http://www.w3.org/2000/svg" xmlns:xlink="http://www.w3.org/1999/xlink" x="0px" y="0px"
	 width="460px" height="295px" viewBox="0 0 460 295" enable-background="new 0 0 460 295" xml:space="preserve">
<path fill="none" stroke="#939393" stroke-width="1.7083" stroke-linecap="round" stroke-linejoin="round" stroke-miterlimit="10" stroke-dasharray="2.5624,4.2706" d="
	M319.562,179.181h-8.812c0,0-8.25-2.181-8.25,5.819s0,20.867,0,20.867s1.764,6.993-6.993,6.993"/>
<path fill="none" stroke="#939393" stroke-width="1.7083" stroke-linecap="round" stroke-linejoin="round" stroke-miterlimit="10" stroke-dasharray="2.5624,4.2706" d="
	M51.976,167.416v-12.724c0,0-1.54-10.158,10.158-10.158s30.912,0,30.912,0"/>
<path fill="none" stroke="#939393" stroke-width="1.7083" stroke-linecap="round" stroke-linejoin="round" stroke-miterlimit="10" stroke-dasharray="2.5624,4.2706" d="
	M252.229,130.569l32.912-0.006c0,0,12,0.667,12-12s0-34.463,0-34.463s-1.821-9.923,9.922-9.923c11.744,0,29.744,0,29.744,0"/>
<rect x="324.897" y="50.792" fill="#353333" width="61.774" height="32.77"/>
<rect x="324.785" y="83.307" fill="#FFFFFF" width="62.108" height="15.093"/>
<rect x="326.886" y="85.886" opacity="0.5" fill="#CF2A28" enable-background="new    " width="40.494" height="2.422"/>
<ellipse fill="#D7D7D7" cx="329.825" cy="93.502" rx="2.938" ry="2.96"/>
<rect x="334.926" y="90.853" fill="#D7D7D7" width="24.411" height="2.003"/>
<rect x="334.926" y="94.083" fill="#E8E8E8" width="14.797" height="1.304"/>
<path fill="none" stroke="#939393" stroke-width="1.7083" stroke-linecap="round" stroke-linejoin="round" stroke-miterlimit="10" stroke-dasharray="2.5624,4.2706" d="
	M175.108,109.333h-72c0,0-10.667-1.047-11.333-11.523s0-34.049,0-34.049"/>
<rect x="61.789" y="19.403" fill="#353333" width="67.85" height="35.993"/>
<rect x="61.667" y="55.115" fill="#FFFFFF" width="68.215" height="16.577"/>
<rect x="63.973" y="57.948" opacity="0.5" fill="#CF2A28" enable-background="new    " width="44.475" height="2.66"/>
<ellipse fill="#D7D7D7" cx="67.201" cy="66.312" rx="3.227" ry="3.251"/>
<rect x="72.803" y="63.403" fill="#D7D7D7" width="26.813" height="2.2"/>
<rect x="72.803" y="66.95" fill="#E8E8E8" width="16.253" height="1.432"/>
<rect x="175.108" y="83.045" fill="#636052" width="77.626" height="122.822"/>
<rect x="158.358" y="152.666" fill="#898780" width="27.5" height="57"/>
<rect x="157.024" y="150.334" fill="#49473D" width="30.5" height="2.332"/>
<rect x="172.274" y="81.522" fill="#49473D" width="83.226" height="3.045"/>
<rect x="180.234" y="90.681" fill="#BACECC" width="13.295" height="9.526"/>
<rect x="198.261" y="90.681" fill="#BACECC" width="13.294" height="9.526"/>
<rect x="216.288" y="90.681" fill="#BACECC" width="13.295" height="9.526"/>
<rect x="234.314" y="90.681" fill="#BACECC" width="13.295" height="9.526"/>
<rect x="180.234" y="104.57" fill="#BACECC" width="13.295" height="9.526"/>
<rect x="198.261" y="104.57" fill="#BACECC" width="13.294" height="9.526"/>
<rect x="216.288" y="104.57" fill="#BACECC" width="13.295" height="9.526"/>
<rect x="234.314" y="104.57" fill="#BACECC" width="13.295" height="9.526"/>
<rect x="180.234" y="118.46" fill="#BACECC" width="13.295" height="9.526"/>
<rect x="198.261" y="118.46" fill="#BACECC" width="13.294" height="9.526"/>
<rect x="216.288" y="118.46" fill="#BACECC" width="13.295" height="9.526"/>
<rect x="234.314" y="118.46" fill="#BACECC" width="13.295" height="9.526"/>
<rect x="180.234" y="132.35" fill="#BACECC" width="13.295" height="9.526"/>
<rect x="198.261" y="132.35" fill="#BACECC" width="13.294" height="9.526"/>
<rect x="216.288" y="132.35" fill="#BACECC" width="13.295" height="9.526"/>
<rect x="234.314" y="132.35" fill="#BACECC" width="13.295" height="9.526"/>
<rect x="198.261" y="146.239" fill="#BACECC" width="13.294" height="9.526"/>
<rect x="216.288" y="146.239" fill="#BACECC" width="13.295" height="9.526"/>
<rect x="234.314" y="146.239" fill="#BACECC" width="13.295" height="9.526"/>
<rect x="198.261" y="160.129" fill="#BACECC" width="13.294" height="9.526"/>
<rect x="216.288" y="160.129" fill="#BACECC" width="13.295" height="9.526"/>
<rect x="234.314" y="160.129" fill="#BACECC" width="13.295" height="9.526"/>
<rect x="198.261" y="174.02" fill="#BACECC" width="13.294" height="9.525"/>
<rect x="216.288" y="174.02" fill="#BACECC" width="13.295" height="9.525"/>
<rect x="234.314" y="174.02" fill="#BACECC" width="13.295" height="9.525"/>
<rect x="198.261" y="187.908" fill="#BACECC" width="13.294" height="9.525"/>
<rect x="165.627" y="158.25" fill="#BACECC" width="13.294" height="39.186"/>
<rect x="216.288" y="187.908" fill="#BACECC" width="13.295" height="9.525"/>
<rect x="234.314" y="187.908" fill="#BACECC" width="13.295" height="9.525"/>
<rect x="213.206" y="59.698" fill="#636052" width="1.363" height="21.825"/>
<circle fill="#49473D" cx="213.887" cy="58.875" r="2.401"/>
<path fill="#DCDCDC" d="M213.887,43.18c-8.668,0-15.695,7.027-15.695,15.695h2.195c0-7.456,6.044-13.5,13.5-13.5
	c7.457,0,13.5,6.044,13.5,13.5h2.196C229.583,50.207,222.555,43.18,213.887,43.18z"/>
<path fill="#DCDCDC" d="M213.887,47.542c-6.259,0-11.333,5.074-11.333,11.333h1.585c0-5.384,4.364-9.748,9.748-9.748
	c5.384,0,9.749,4.364,9.749,9.748h1.585C225.221,52.616,220.146,47.542,213.887,47.542z"/>
<path fill="#DCDCDC" d="M213.887,52.103c-3.74,0-6.773,3.032-6.773,6.772h0.948c0-3.217,2.608-5.825,5.825-5.825
	c3.218,0,5.826,2.608,5.826,5.825h0.948C220.66,55.135,217.627,52.103,213.887,52.103z"/>
<rect x="319.562" y="160.555" fill="#898780" width="69.639" height="89.371"/>
<polygon fill="#84827C" points="76.043,196.361 76.043,168.582 27.816,168.582 27.816,239.375 76.043,239.375 124.271,239.375 
	124.271,196.361 "/>
<rect x="241.058" y="189.113" fill="#353333" width="53.339" height="28.294"/>
<rect x="240.962" y="217.188" fill="#FFFFFF" width="53.625" height="13.031"/>
<rect x="242.775" y="219.414" opacity="0.5" fill="#CF2A28" enable-background="new    " width="34.962" height="2.091"/>
<ellipse fill="#D7D7D7" cx="245.312" cy="225.989" rx="2.537" ry="2.556"/>
<rect x="249.717" y="223.702" fill="#D7D7D7" width="21.078" height="1.729"/>
<rect x="249.717" y="226.49" fill="#E8E8E8" width="12.776" height="1.126"/>
<rect x="93.203" y="136.439" fill="#353333" width="53.339" height="28.293"/>
<rect x="93.107" y="164.514" fill="#FFFFFF" width="53.625" height="13.031"/>
<rect x="94.92" y="166.74" opacity="0.5" fill="#CF2A28" enable-background="new    " width="34.962" height="2.09"/>
<ellipse fill="#D7D7D7" cx="97.458" cy="173.315" rx="2.537" ry="2.556"/>
<rect x="101.862" y="171.027" fill="#D7D7D7" width="21.078" height="1.73"/>
<rect x="101.862" y="173.816" fill="#E8E8E8" width="12.776" height="1.125"/>
<rect x="25.69" y="167.416" fill="#49473D" width="52.572" height="2.332"/>
<rect x="76.043" y="195.195" fill="#49473D" width="51.171" height="2.332"/>
<rect x="35.566" y="177.709" fill="#C5E2DE" width="13.295" height="9.525"/>
<rect x="54.659" y="177.71" fill="#C5E2DE" width="13.295" height="9.525"/>
<rect x="35.782" y="191.598" fill="#C5E2DE" width="13.295" height="9.525"/>
<rect x="54.875" y="191.599" fill="#C5E2DE" width="13.295" height="9.525"/>
<rect x="35.998" y="205.486" fill="#C5E2DE" width="13.295" height="9.525"/>
<rect x="55.091" y="205.487" fill="#C5E2DE" width="13.295" height="9.525"/>
<rect x="81.833" y="206.951" fill="#C5E2DE" width="34.097" height="9.525"/>
<rect x="81.833" y="223.104" fill="#C5E2DE" width="34.097" height="9.525"/>
<rect x="35.782" y="219.787" fill="#706F6B" width="32.604" height="19.588"/>
<rect x="317.214" y="158.514" fill="#72716D" width="74.333" height="4.083"/>
<rect x="328.278" y="169.655" fill="#BACECC" width="13.294" height="9.525"/>
<rect x="347.733" y="169.655" fill="#BACECC" width="13.294" height="9.525"/>
<rect x="367.188" y="169.655" fill="#BACECC" width="13.294" height="9.525"/>
<rect x="328.278" y="183.146" fill="#BACECC" width="13.294" height="9.525"/>
<rect x="347.733" y="183.146" fill="#BACECC" width="13.294" height="9.525"/>
<rect x="367.188" y="183.146" fill="#BACECC" width="13.294" height="9.525"/>
<rect x="328.278" y="196.636" fill="#BACECC" width="13.294" height="9.525"/>
<rect x="347.733" y="196.636" fill="#BACECC" width="13.294" height="9.525"/>
<rect x="367.188" y="196.636" fill="#BACECC" width="13.294" height="9.525"/>
<rect x="328.278" y="210.126" fill="#BACECC" width="13.294" height="9.525"/>
<rect x="347.733" y="210.126" fill="#BACECC" width="13.294" height="9.525"/>
<rect x="367.188" y="210.126" fill="#BACECC" width="13.294" height="9.525"/>
</svg>
