<?xml version="1.0" encoding="utf-8"?>
<!-- Generator: Adobe Illustrator 16.2.1, SVG Export Plug-In . SVG Version: 6.00 Build 0)  -->
<!DOCTYPE svg PUBLIC "-//W3C//DTD SVG 1.1//EN" "http://www.w3.org/Graphics/SVG/1.1/DTD/svg11.dtd">
<svg version="1.1" id="Layer_1" xmlns="http://www.w3.org/2000/svg" xmlns:xlink="http://www.w3.org/1999/xlink" x="0px" y="0px"
	 width="460px" height="295px" viewBox="0 0 460 295" enable-background="new 0 0 460 295" xml:space="preserve">
<g>
	<path fill="#CEEDEB" d="M233.607,193.859c93.629,0,170.453,14.015,178.322,31.869c3.555-13.407,5.453-27.43,5.453-41.87
		c0-95.361-82.279-172.667-183.775-172.667S49.833,88.497,49.833,183.858c0,14.44,1.898,28.462,5.452,41.868
		C63.157,207.873,139.981,193.859,233.607,193.859z"/>
</g>
<path fill="none" stroke="#939393" stroke-width="1.7083" stroke-linecap="round" stroke-linejoin="round" stroke-miterlimit="10" stroke-dasharray="2.5624,4.2706" d="
	M252.734,125.375l32.913-0.006c0,0,12,0.667,12-12s0-34.463,0-34.463s-1.822-9.923,9.922-9.923s29.744,0,29.744,0"/>
<rect x="328.476" y="41.701" fill="#353333" width="67.85" height="35.993"/>
<rect x="328.354" y="77.413" fill="#FFFFFF" width="68.215" height="16.577"/>
<rect x="330.661" y="80.246" opacity="0.5" fill="#CF2A28" enable-background="new    " width="44.475" height="2.66"/>
<ellipse fill="#D7D7D7" cx="333.888" cy="88.611" rx="3.227" ry="3.251"/>
<rect x="339.491" y="85.701" fill="#D7D7D7" width="26.812" height="2.2"/>
<rect x="339.491" y="89.249" fill="#E8E8E8" width="16.252" height="1.432"/>
<path fill="none" stroke="#939393" stroke-width="1.7083" stroke-linecap="round" stroke-linejoin="round" stroke-miterlimit="10" stroke-dasharray="2.5624,4.2706" d="
	M175.108,109.333h-72c0,0-10.667-1.047-11.333-11.523s0-34.049,0-34.049"/>
<rect x="61.789" y="19.403" fill="#353333" width="67.85" height="35.993"/>
<rect x="61.667" y="55.115" fill="#FFFFFF" width="68.215" height="16.577"/>
<rect x="63.973" y="57.948" opacity="0.5" fill="#CF2A28" enable-background="new    " width="44.475" height="2.66"/>
<ellipse fill="#D7D7D7" cx="67.201" cy="66.312" rx="3.227" ry="3.251"/>
<rect x="72.803" y="63.403" fill="#D7D7D7" width="26.813" height="2.2"/>
<rect x="72.803" y="66.95" fill="#E8E8E8" width="16.253" height="1.432"/>
<ellipse fill="#A8CC5A" cx="232.441" cy="227.328" rx="179" ry="34.895"/>
<path fill="#4D4F4A" d="M53.441,227.252c0,3.99,3.445,7.822,9.771,11.394H401.67c6.326-3.571,9.771-7.403,9.771-11.394
	c0-4.688-4.754-9.158-13.352-13.241H66.792C58.193,218.094,53.441,222.564,53.441,227.252z"/>
<path fill="#4F8231" d="M303.441,163.033l-12,41.455c0,0,3.709,4.146,12,4.146s12-4.146,12-4.146L303.441,163.033z"/>
<path fill="#4F8231" d="M220.17,220.476l-9.562,33.034c0,0,2.956,3.305,9.562,3.305c6.608,0,9.564-3.305,9.564-3.305L220.17,220.476
	z"/>
<path fill="#4F8231" d="M124.775,175.967l-8.667,29.939c0,0,2.679,2.994,8.667,2.994c5.989,0,8.667-2.994,8.667-2.994
	L124.775,175.967z"/>
<rect x="175.108" y="83.045" fill="#636052" width="77.626" height="122.822"/>
<rect x="158.358" y="152.666" fill="#898780" width="27.5" height="57"/>
<rect x="157.024" y="150.334" fill="#49473D" width="30.5" height="2.332"/>
<rect x="172.274" y="81.522" fill="#49473D" width="83.226" height="3.045"/>
<path fill="none" stroke="#939393" stroke-width="1.7083" stroke-linecap="round" stroke-linejoin="round" stroke-miterlimit="10" stroke-dasharray="2.5624,4.2706" d="
	M151.107,163.033H53.441c0,0-13-1.1-13,12.934"/>
<rect x="9.122" y="173.83" fill="#353333" width="67.85" height="35.992"/>
<rect x="9" y="209.541" fill="#FFFFFF" width="68.215" height="16.578"/>
<rect x="11.307" y="212.375" opacity="0.5" fill="#CF2A28" enable-background="new    " width="44.475" height="2.66"/>
<ellipse fill="#D7D7D7" cx="14.534" cy="220.739" rx="3.227" ry="3.251"/>
<rect x="20.137" y="217.83" fill="#D7D7D7" width="26.813" height="2.199"/>
<rect x="20.137" y="221.377" fill="#E8E8E8" width="16.253" height="1.432"/>
<polygon fill="#BAA663" points="232.505,214.011 225.572,205.867 200.671,205.867 195.338,214.011 "/>
<rect x="180.234" y="90.681" fill="#BACECC" width="13.295" height="9.526"/>
<rect x="198.261" y="90.681" fill="#BACECC" width="13.294" height="9.526"/>
<rect x="216.288" y="90.681" fill="#BACECC" width="13.295" height="9.526"/>
<rect x="234.314" y="90.681" fill="#BACECC" width="13.295" height="9.526"/>
<rect x="180.234" y="104.57" fill="#BACECC" width="13.295" height="9.526"/>
<rect x="198.261" y="104.57" fill="#BACECC" width="13.294" height="9.526"/>
<rect x="216.288" y="104.57" fill="#BACECC" width="13.295" height="9.526"/>
<rect x="234.314" y="104.57" fill="#BACECC" width="13.295" height="9.526"/>
<rect x="180.234" y="118.46" fill="#BACECC" width="13.295" height="9.526"/>
<rect x="198.261" y="118.46" fill="#BACECC" width="13.294" height="9.526"/>
<rect x="216.288" y="118.46" fill="#BACECC" width="13.295" height="9.526"/>
<rect x="234.314" y="118.46" fill="#BACECC" width="13.295" height="9.526"/>
<rect x="180.234" y="132.35" fill="#BACECC" width="13.295" height="9.526"/>
<rect x="198.261" y="132.35" fill="#BACECC" width="13.294" height="9.526"/>
<rect x="216.288" y="132.35" fill="#BACECC" width="13.295" height="9.526"/>
<rect x="234.314" y="132.35" fill="#BACECC" width="13.295" height="9.526"/>
<rect x="198.261" y="146.239" fill="#BACECC" width="13.294" height="9.526"/>
<rect x="216.288" y="146.239" fill="#BACECC" width="13.295" height="9.526"/>
<rect x="234.314" y="146.239" fill="#BACECC" width="13.295" height="9.526"/>
<rect x="198.261" y="160.129" fill="#BACECC" width="13.294" height="9.526"/>
<rect x="216.288" y="160.129" fill="#BACECC" width="13.295" height="9.526"/>
<rect x="234.314" y="160.129" fill="#BACECC" width="13.295" height="9.526"/>
<rect x="198.261" y="174.019" fill="#BACECC" width="13.294" height="9.526"/>
<rect x="216.288" y="174.019" fill="#BACECC" width="13.295" height="9.526"/>
<rect x="234.314" y="174.019" fill="#BACECC" width="13.295" height="9.526"/>
<rect x="198.261" y="187.908" fill="#BACECC" width="13.294" height="9.526"/>
<rect x="165.627" y="158.25" fill="#BACECC" width="13.294" height="39.185"/>
<rect x="216.288" y="187.908" fill="#BACECC" width="13.295" height="9.526"/>
<rect x="234.314" y="187.908" fill="#BACECC" width="13.295" height="9.526"/>
<rect x="81.857" y="224.125" fill="#EBF2F1" width="9.285" height="1.994"/>
<rect x="97.524" y="224.125" fill="#EBF2F1" width="9.285" height="1.994"/>
<rect x="113.19" y="224.125" fill="#EBF2F1" width="9.285" height="1.994"/>
<rect x="128.857" y="224.125" fill="#EBF2F1" width="9.285" height="1.994"/>
<rect x="144.523" y="224.125" fill="#EBF2F1" width="9.285" height="1.994"/>
<rect x="160.19" y="224.125" fill="#EBF2F1" width="9.285" height="1.994"/>
<rect x="175.856" y="224.125" fill="#EBF2F1" width="9.285" height="1.994"/>
<rect x="191.523" y="224.125" fill="#EBF2F1" width="9.285" height="1.994"/>
<rect x="207.189" y="224.125" fill="#EBF2F1" width="9.285" height="1.994"/>
<rect x="222.856" y="224.125" fill="#EBF2F1" width="9.285" height="1.994"/>
<rect x="238.522" y="224.125" fill="#EBF2F1" width="9.284" height="1.994"/>
<rect x="254.189" y="224.125" fill="#EBF2F1" width="9.283" height="1.994"/>
<rect x="269.855" y="224.125" fill="#EBF2F1" width="9.283" height="1.994"/>
<rect x="285.521" y="224.125" fill="#EBF2F1" width="9.283" height="1.994"/>
<rect x="301.188" y="224.125" fill="#EBF2F1" width="9.283" height="1.994"/>
<rect x="316.854" y="224.125" fill="#EBF2F1" width="9.283" height="1.994"/>
<rect x="332.52" y="224.125" fill="#EBF2F1" width="9.283" height="1.994"/>
<rect x="348.186" y="224.125" fill="#EBF2F1" width="9.283" height="1.994"/>
<rect x="363.852" y="224.125" fill="#EBF2F1" width="9.283" height="1.994"/>
<rect x="379.518" y="224.125" fill="#EBF2F1" width="9.283" height="1.994"/>
<rect x="395.184" y="224.125" fill="#EBF2F1" width="9.283" height="1.994"/>
<path fill="#4F8231" d="M243.17,217.897l-9.562,33.034c0,0,2.956,3.305,9.562,3.305c6.608,0,9.564-3.305,9.564-3.305L243.17,217.897
	z"/>
<rect x="213.206" y="59.698" fill="#636052" width="1.363" height="21.825"/>
<circle fill="#49473D" cx="213.887" cy="58.875" r="2.401"/>
<path fill="#B2D8D5" d="M213.887,43.18c-8.668,0-15.695,7.027-15.695,15.695h2.195c0-7.456,6.044-13.5,13.5-13.5
	c7.457,0,13.5,6.044,13.5,13.5h2.196C229.583,50.207,222.555,43.18,213.887,43.18z"/>
<path fill="#B2D8D5" d="M213.887,47.542c-6.259,0-11.333,5.074-11.333,11.333h1.585c0-5.384,4.364-9.748,9.748-9.748
	c5.384,0,9.749,4.364,9.749,9.748h1.585C225.221,52.616,220.146,47.542,213.887,47.542z"/>
<path fill="#B2D8D5" d="M213.887,52.103c-3.74,0-6.773,3.032-6.773,6.772h0.948c0-3.217,2.608-5.825,5.825-5.825
	c3.218,0,5.826,2.608,5.826,5.825h0.948C220.66,55.135,217.627,52.103,213.887,52.103z"/>
</svg>
