<?xml version="1.0" encoding="utf-8"?>
<!-- Generator: Adobe Illustrator 16.2.1, SVG Export Plug-In . SVG Version: 6.00 Build 0)  -->
<!DOCTYPE svg PUBLIC "-//W3C//DTD SVG 1.1//EN" "http://www.w3.org/Graphics/SVG/1.1/DTD/svg11.dtd">
<svg version="1.1" id="Layer_1" xmlns="http://www.w3.org/2000/svg" xmlns:xlink="http://www.w3.org/1999/xlink" x="0px" y="0px"
	 width="160px" height="160px" viewBox="0 0 160 160" enable-background="new 0 0 160 160" xml:space="preserve">
<g id="Isolation_Mode">
	<path fill="#D3D3D3" d="M80,0c0,0-18.772,11.641-43.56,36.44C11.641,61.228,0,80,0,80s11.501,20.275,35.615,44.385
		C59.725,148.488,80,160,80,160s20.684-10.275,45.477-35.068C150.275,100.139,160,80,160,80s-10.234-18.813-34.885-43.474
		C100.454,11.875,80,0,80,0z M145.518,80.156c0,0-7.947,16.462-28.213,36.717c-20.256,20.266-37.166,28.661-37.166,28.661
		s-16.567-9.403-36.265-29.104C24.165,96.729,14.763,80.156,14.763,80.156s9.515-15.334,29.783-35.593
		c20.257-20.261,35.593-29.78,35.593-29.78s16.718,9.704,36.867,29.858C137.162,64.79,145.518,80.156,145.518,80.156z"/>
</g>
<circle fill="#D3D3D3" cx="57.303" cy="64.074" r="11.475"/>
<circle fill="#D3D3D3" cx="101.01" cy="64.074" r="11.475"/>
<path fill="#D3D3D3" d="M81.154,116.261c-22.226,0-33.143-17.059-33.596-17.79c-1.877-3.008-0.965-6.964,2.04-8.839
	c2.998-1.864,6.936-0.969,8.821,2.009c0.358,0.557,7.827,11.785,22.736,11.785c14.401,0,19.84-10.678,20.066-11.137
	c1.556-3.151,5.378-4.501,8.551-2.967c3.173,1.525,4.532,5.285,3.049,8.474C112.46,98.553,103.899,116.261,81.154,116.261z"/>
</svg>
