<?xml version="1.0" encoding="utf-8"?>
<!-- Generator: Adobe Illustrator 16.2.1, SVG Export Plug-In . SVG Version: 6.00 Build 0)  -->
<!DOCTYPE svg PUBLIC "-//W3C//DTD SVG 1.1//EN" "http://www.w3.org/Graphics/SVG/1.1/DTD/svg11.dtd">
<svg version="1.1" id="Layer_1" xmlns="http://www.w3.org/2000/svg" xmlns:xlink="http://www.w3.org/1999/xlink" x="0px" y="0px"
	 width="80px" height="80px" viewBox="0 0 80 80" enable-background="new 0 0 80 80" xml:space="preserve">
<g id="Isolation_Mode">
	<path fill="#D3D3D3" d="M40,0.191c0,0-9.386,5.821-21.78,18.22C5.821,30.805,0,40.191,0,40.191s5.75,10.138,17.808,22.192
		C29.862,74.436,40,80.191,40,80.191s10.341-5.137,22.738-17.534C75.138,50.261,80,40.191,80,40.191s-5.117-9.406-17.442-21.737
		C50.227,6.129,40,0.191,40,0.191z M72.759,40.27c0,0-3.974,8.231-14.106,18.358C48.524,68.761,40.069,72.958,40.069,72.958
		s-8.284-4.702-18.132-14.552C12.083,48.556,7.382,40.27,7.382,40.27s4.757-7.667,14.891-17.797
		c10.128-10.13,17.796-14.89,17.796-14.89s8.359,4.852,18.434,14.929C68.581,32.586,72.759,40.27,72.759,40.27z"/>
</g>
<circle fill="#D3D3D3" cx="28.651" cy="32.228" r="5.738"/>
<circle fill="#D3D3D3" cx="50.505" cy="32.228" r="5.738"/>
<path fill="#D3D3D3" d="M40.577,58.322c-11.113,0-16.571-8.529-16.798-8.895c-0.939-1.504-0.483-3.482,1.02-4.419
	c1.499-0.932,3.468-0.484,4.41,1.004c0.179,0.279,3.914,5.893,11.368,5.893c7.201,0,9.92-5.339,10.033-5.568
	c0.778-1.575,2.689-2.25,4.275-1.483c1.587,0.763,2.267,2.643,1.524,4.237C56.23,49.468,51.949,58.322,40.577,58.322z"/>
</svg>
