<?xml version="1.0" encoding="utf-8"?>
<!-- Generator: Adobe Illustrator 16.2.1, SVG Export Plug-In . SVG Version: 6.00 Build 0)  -->
<!DOCTYPE svg PUBLIC "-//W3C//DTD SVG 1.1//EN" "http://www.w3.org/Graphics/SVG/1.1/DTD/svg11.dtd">
<svg version="1.1" id="Layer_1" xmlns="http://www.w3.org/2000/svg" xmlns:xlink="http://www.w3.org/1999/xlink" x="0px" y="0px"
	 width="110px" height="110px" viewBox="0 0 110 110" enable-background="new 0 0 110 110" xml:space="preserve">
<g id="Isolation_Mode">
	<path fill="#D3D3D3" d="M55,0c0,0-12.906,8.003-29.947,25.053C8.003,42.094,0,55,0,55s7.907,13.939,24.485,30.515
		C41.061,102.086,55,110,55,110s14.219-7.063,31.266-24.109C103.314,68.846,110,55,110,55s-7.036-12.934-23.982-29.889
		C69.062,8.164,55,0,55,0z M100.044,55.107c0,0-5.464,11.318-19.396,25.243c-13.926,13.933-25.552,19.704-25.552,19.704
		s-11.39-6.465-24.932-20.009C16.613,66.501,10.15,55.107,10.15,55.107s6.541-10.542,20.476-24.471
		c13.926-13.929,24.47-20.474,24.47-20.474S66.59,16.834,80.442,30.69C94.299,44.543,100.044,55.107,100.044,55.107z"/>
</g>
<circle fill="#D3D3D3" cx="39.396" cy="44.051" r="7.889"/>
<circle fill="#D3D3D3" cx="69.444" cy="44.051" r="7.889"/>
<path fill="#D3D3D3" d="M55.793,79.93c-15.28,0-22.786-11.728-23.097-12.231c-1.291-2.068-0.664-4.788,1.403-6.077
	c2.061-1.282,4.768-0.666,6.064,1.381c0.247,0.383,5.381,8.103,15.63,8.103c9.902,0,13.641-7.341,13.796-7.657
	c1.07-2.166,3.698-3.094,5.879-2.04c2.182,1.049,3.116,3.634,2.096,5.826C77.316,67.755,71.43,79.93,55.793,79.93z"/>
</svg>
