<?xml version="1.0" encoding="utf-8"?>
<!-- Generator: Adobe Illustrator 17.0.2, SVG Export Plug-In . SVG Version: 6.00 Build 0)  -->
<!DOCTYPE svg PUBLIC "-//W3C//DTD SVG 1.1//EN" "http://www.w3.org/Graphics/SVG/1.1/DTD/svg11.dtd">
<svg version="1.1" id="Layer_1" xmlns="http://www.w3.org/2000/svg" xmlns:xlink="http://www.w3.org/1999/xlink" x="0px" y="0px"
	 width="20px" height="20px" viewBox="0 0 20 20" enable-background="new 0 0 20 20" xml:space="preserve">
<g>
	<g>
		<path fill="#E54848" d="M0.404,10.427c0,5.3,4.297,9.595,9.596,9.595s9.595-4.297,9.595-9.595c0-5.301-4.297-9.595-9.595-9.595
			C4.701,0.831,0.404,5.127,0.404,10.427z M17.51,10.427c0,4.147-3.362,7.509-7.51,7.509s-7.51-3.362-7.51-7.509
			c0-4.148,3.362-7.51,7.51-7.51C14.148,2.917,17.51,6.279,17.51,10.427z M5.985,8.549v3.755h4.266v2.347l3.974-4.224l-3.974-4.225
			v2.347H5.985z"/>
	</g>
	<g>
		<g>
			<path fill="#3D0B0B" d="M0.404,9.573c0,5.3,4.297,9.595,9.596,9.595s9.595-4.297,9.595-9.595c0-5.301-4.297-9.595-9.595-9.595
				C4.701-0.024,0.404,4.272,0.404,9.573z M17.51,9.573c0,4.147-3.362,7.509-7.51,7.509S2.49,13.72,2.49,9.573
				c0-4.148,3.362-7.51,7.51-7.51C14.148,2.063,17.51,5.425,17.51,9.573z M5.985,7.695v3.755h4.266v2.347l3.974-4.224l-3.974-4.225
				v2.347H5.985z"/>
		</g>
	</g>
</g>
</svg>
