<?xml version="1.0" encoding="utf-8"?>
<!-- Generator: Adobe Illustrator 16.2.1, SVG Export Plug-In . SVG Version: 6.00 Build 0)  -->
<!DOCTYPE svg PUBLIC "-//W3C//DTD SVG 1.1//EN" "http://www.w3.org/Graphics/SVG/1.1/DTD/svg11.dtd">
<svg version="1.1" id="Layer_1" xmlns="http://www.w3.org/2000/svg" xmlns:xlink="http://www.w3.org/1999/xlink" x="0px" y="0px"
	 width="45px" height="45px" viewBox="0 0 45 45" enable-background="new 0 0 45 45" xml:space="preserve">
<path fill="#383838" d="M22.5,0c0,0-5.279,3.274-12.251,10.249C3.274,17.22,0,22.5,0,22.5s3.235,5.702,10.017,12.483
	C16.797,41.763,22.5,45,22.5,45s5.817-2.89,12.79-9.863C42.266,28.164,45,22.5,45,22.5s-2.878-5.292-9.812-12.227
	C28.253,3.34,22.5,0,22.5,0z M42.524,22.527c0,0-2.432,5.036-8.631,11.232c-6.197,6.2-11.37,8.769-11.37,8.769
	s-5.068-2.877-11.095-8.903C5.4,27.596,2.523,22.527,2.523,22.527s2.911-4.691,9.111-10.89c6.197-6.198,10.889-9.11,10.889-9.11
	s5.114,2.969,11.279,9.134C39.968,17.826,42.524,22.527,42.524,22.527z"/>
<linearGradient id="SVGID_1_" gradientUnits="userSpaceOnUse" x1="22.5396" y1="5.1294" x2="22.5395" y2="40.256">
	<stop  offset="0" style="stop-color:#E8443A"/>
	<stop  offset="0.6953" style="stop-color:#D62F2B"/>
	<stop  offset="1" style="stop-color:#C62626"/>
</linearGradient>
<path fill="url(#SVGID_1_)" d="M32.877,12.585C27.229,6.933,22.54,4.213,22.54,4.213s-4.301,2.669-9.982,8.351
	c-5.682,5.681-8.352,9.981-8.352,9.981s2.637,4.646,8.164,10.171c5.523,5.524,10.168,8.161,10.168,8.161s4.741-2.354,10.421-8.035
	c5.683-5.682,7.912-10.297,7.912-10.297S38.529,18.234,32.877,12.585z M32.176,26.798c-0.377,0.893-1.065,1.602-1.882,1.977
	c0,0-0.828,0.405-2.892,0.706c0,0-0.583,0.873-1.688,2.157C24.609,32.925,23,33.828,23,33.828v-6.504
	c4-0.114,5.174-0.716,5.174-0.716c0.614-0.196,1.25-0.692,1.537-1.331c0,0,0.584-0.857,0.584-2.809
	c-0.029-2.177-0.273-2.637-0.431-2.971c-0.158-0.335-0.76-1.023-1.326-1.281c-0.564-0.261-1.133-0.648-6.034-0.648
	c-4.904,0-5.475,0.387-6.041,0.648c-0.564,0.257-1.191,0.946-1.349,1.281c-0.158,0.334-0.455,0.794-0.484,2.971
	c0,1.951,0.476,2.809,0.476,2.809c0.286,0.639,0.621,1.135,1.238,1.331c0,0-0.344,0.602,4.656,0.716v2.447
	c-5-0.136-6.382-0.997-6.382-0.997c-0.814-0.375-1.432-1.084-1.807-1.977c0,0-0.515-1.107-0.515-4.329
	c0-3.222,0.554-4.493,0.554-4.493c0.315-0.955,1.056-1.744,1.89-2.016c0,0,2.903-0.811,7.776-0.811c4.872,0,7.772,0.811,7.772,0.811
	c0.834,0.271,1.569,1.061,1.884,2.016c0,0,0.544,1.271,0.544,4.493C32.716,25.69,32.176,26.798,32.176,26.798z"/>
</svg>
