<?xml version="1.0" encoding="utf-8"?>
<!-- Generator: Adobe Illustrator 16.2.1, SVG Export Plug-In . SVG Version: 6.00 Build 0)  -->
<!DOCTYPE svg PUBLIC "-//W3C//DTD SVG 1.1//EN" "http://www.w3.org/Graphics/SVG/1.1/DTD/svg11.dtd">
<svg version="1.1" id="Layer_1" xmlns="http://www.w3.org/2000/svg" xmlns:xlink="http://www.w3.org/1999/xlink" x="0px" y="0px"
	 width="80px" height="80px" viewBox="0 0 80 80" enable-background="new 0 0 80 80" xml:space="preserve">
<path fill="#FFFFFF" d="M40,0c0,0-9.383,5.822-21.78,18.219C5.822,30.616,0,40,0,40s5.753,10.138,17.808,22.192
	C29.863,74.245,40,80,40,80s10.343-5.137,22.74-17.534C75.138,50.069,80,40,80,40s-5.114-9.406-17.443-21.736
	C50.229,5.938,40,0,40,0z M75.599,40.048c0,0-4.323,8.95-15.342,19.969c-11.02,11.021-20.214,15.586-20.214,15.586
	s-9.01-5.114-19.726-15.828C9.601,49.06,4.487,40.048,4.487,40.048s5.176-8.34,16.195-19.361
	c11.02-11.019,19.36-16.194,19.36-16.194s9.092,5.277,20.051,16.236C71.053,31.688,75.599,40.048,75.599,40.048z"/>
<linearGradient id="SVGID_1_" gradientUnits="userSpaceOnUse" x1="40.0728" y1="10.2598" x2="40.0728" y2="70.407">
	<stop  offset="0" style="stop-color:#E8443A"/>
	<stop  offset="0.6953" style="stop-color:#D62F2B"/>
	<stop  offset="1" style="stop-color:#C62626"/>
</linearGradient>
<path fill="url(#SVGID_1_)" d="M57.773,23.024C48.099,13.349,40.072,8.69,40.072,8.69s-7.364,4.569-17.093,14.299
	C13.251,32.716,8.682,40.08,8.682,40.08s4.515,7.956,13.974,17.416c9.461,9.46,17.415,13.975,17.415,13.975
	s8.117-4.032,17.846-13.761c9.729-9.728,13.546-17.63,13.546-17.63S67.449,32.699,57.773,23.024z M56.571,47.362
	c-0.644,1.529-1.824,2.741-3.221,3.383c0,0-1.419,0.697-4.951,1.21c0,0-0.518,1.493-2.412,3.695
	c-1.891,2.202-4.165,3.747-4.165,3.747V48.263c6.4-0.195,8.376-1.226,8.376-1.226c1.054-0.333,1.901-1.184,2.392-2.281
	c0,0,0.88-1.464,0.88-4.807c-0.052-3.726-0.525-4.515-0.797-5.086c-0.27-0.572-1.333-1.75-2.302-2.192
	c-0.967-0.445-1.952-1.108-10.346-1.108c-8.396,0-9.385,0.663-10.352,1.108c-0.968,0.442-2.046,1.621-2.317,2.192
	c-0.27,0.572-0.776,1.361-0.828,5.086c0,3.343,0.815,4.807,0.815,4.807c0.49,1.097,0.856,1.948,1.91,2.281
	c0,0,1.368,1.031,7.768,1.226v4.19c-7.2-0.231-10.721-1.708-10.721-1.708c-1.396-0.642-2.349-1.854-2.993-3.383
	c0,0-0.831-1.895-0.831-7.414c0-5.516,0.975-7.691,0.975-7.691c0.542-1.634,1.821-2.988,3.25-3.451c0,0,4.976-1.391,13.319-1.391
	c8.343,0,13.313,1.391,13.313,1.391c1.429,0.462,2.688,1.816,3.229,3.451c0,0,0.93,2.176,0.93,7.691
	C57.494,45.467,56.571,47.362,56.571,47.362z"/>
</svg>
