<?xml version="1.0" encoding="utf-8"?>
<!-- Generator: Adobe Illustrator 16.2.1, SVG Export Plug-In . SVG Version: 6.00 Build 0)  -->
<!DOCTYPE svg PUBLIC "-//W3C//DTD SVG 1.1//EN" "http://www.w3.org/Graphics/SVG/1.1/DTD/svg11.dtd">
<svg version="1.1" id="Layer_1" xmlns="http://www.w3.org/2000/svg" xmlns:xlink="http://www.w3.org/1999/xlink" x="0px" y="0px"
	 width="20px" height="16px" viewBox="0 0 20 16" enable-background="new 0 0 20 16" xml:space="preserve">
<g>
	<path fill="#B5B5B5" d="M18,0H2.001C0.9,0,0,0.9,0,2v12c0,1.1,0.9,2,2.001,2H18c1.1,0,2-0.9,2-2V2C20,0.9,19.1,0,18,0z M18,14
		H2.001V2H18V14z M8.685,4.972h-5V6.51h5V4.972z M8.665,7.397h-5v1.539h5V7.397z M8.646,9.824h-5v1.538h5V9.824z"/>
</g>
<path fill="#B5B5B5" d="M16.378,11.341l-5.982-0.004c0,0-0.645,0.046-0.701-0.183c-0.08-0.326-0.025-1.033,0.79-1.328
	c0,0,1.78-0.482,1.78-0.995c0,0,0.302,0.03,0.302-0.121c0,0-0.302-0.242-0.271-0.694c0,0-0.271-0.06-0.271-0.301
	c0,0-0.182-0.211-0.061-0.815c0,0-0.182-0.935,0.15-1.417c0,0,0.363-0.332,0.544-0.332c0,0,0.06-0.151,0.572-0.151
	c0,0,0.694-0.061,0.694,0.181c0,0,0.604,0.211,0.604,0.422c0,0,0.303,0.393,0.182,1.297c0,0,0.15,0.754-0.121,0.996
	c0,0-0.181,0.271-0.271,0.271c0,0,0.061,0.453-0.15,0.543c0,0,0.12,0.091,0.241,0.061c0,0,0.271,0.634,1.961,1.116
	c0,0,0.79,0.391,0.657,1.221C16.986,11.36,16.378,11.341,16.378,11.341z"/>
</svg>
