<?xml version="1.0" encoding="utf-8"?>
<!-- Generator: Adobe Illustrator 16.2.1, SVG Export Plug-In . SVG Version: 6.00 Build 0)  -->
<!DOCTYPE svg PUBLIC "-//W3C//DTD SVG 1.1//EN" "http://www.w3.org/Graphics/SVG/1.1/DTD/svg11.dtd">
<svg version="1.1" id="Layer_1" xmlns="http://www.w3.org/2000/svg" xmlns:xlink="http://www.w3.org/1999/xlink" x="0px" y="0px"
	 width="20px" height="20px" viewBox="0 0 20 20" enable-background="new 0 0 20 20" xml:space="preserve">
<path fill="#B5B5B5" d="M18.892,5.429c-2.524-4.911-8.551-6.846-13.463-4.321C0.519,3.632-1.417,9.66,1.108,14.571
	s8.551,6.846,13.463,4.32C19.482,16.368,21.417,10.34,18.892,5.429z M3.064,13.565c-1.06-2.061-1.104-4.371-0.33-6.375
	c0.415-0.037,0.927-0.112,1.025-0.005c0.385,0.419,0.096,1.174,0.446,1.812c0.241,0.439,0.55,0.865,0.465,1.187
	c-0.084,0.322,0.542,0.902,0.719,1.171c0.175,0.27,0.821,0.634,0.694,0.982c-0.126,0.349,0.874,0.917,0.958,0.91
	c0.081-0.006,1.189,0.645,1.661,0.602c-0.116,0.176-0.288,0.448-0.388,0.75c-0.084,0.249-0.208,0.333-0.155,0.719
	c0.044,0.313,0.679,0.677,0.739,1.006c0.088,0.485,0.248,0.9,0.341,1.078c0.07,0.133,0.111,0.253,0.142,0.366
	C6.782,17.557,4.344,16.056,3.064,13.565z M15.902,15.093c-0.088-0.147-0.194-0.284-0.31-0.371
	c-0.259-0.194-0.765-0.578-1.348-0.646c-0.133-0.016-0.129,0.401-0.484,0.387c-0.207-0.01-0.184-0.643-0.226-0.692
	c-0.387-0.455-1.149-1.169-1.653-1.087c-0.263,0.043-0.883-0.406-1.374-0.207c-0.421,0.171-1.066,0.43-1.497,0.933
	c-0.001,0-0.001-0.001-0.001-0.002c-0.099-0.094-0.277-0.274-0.146-0.521c0.292-0.547-0.957-0.61-0.703-0.719
	s0.084-0.659,0.724-0.901c0.64-0.242,0.099-0.752-0.333-0.488c-0.446,0.272-0.542-0.585-0.546-0.907s0.29-0.189,0.75-0.344
	c0.39-0.13,0.82-0.011,1.217-0.051c0.072-0.007,0.158,0.184,0.214,0.236c0.192,0.18,0.335,0.066,0.299-0.155
	c-0.021-0.136-0.182-0.645-0.371-1.08c-0.304-0.699-0.043-0.553-0.28-0.959c-0.238-0.406-0.26-0.214-0.61-0.398
	C8.873,6.935,9.84,6.903,9.917,6.525c0.078-0.378,0.231-0.412,0.779-0.671c0.526-0.25,0.375-0.381,0.875-0.947
	c0.275-0.312,0.474-0.792,0.778-0.778c0.304,0.013,1.293,0.457,1.175-0.204c-0.051-0.279,0.064-0.549,0.206-0.773
	c1.329,0.722,2.463,1.836,3.206,3.283C18.433,9.346,17.917,12.758,15.902,15.093z"/>
</svg>
