<?xml version="1.0" encoding="utf-8"?>
<!-- Generator: Adobe Illustrator 16.2.1, SVG Export Plug-In . SVG Version: 6.00 Build 0)  -->
<!DOCTYPE svg PUBLIC "-//W3C//DTD SVG 1.1//EN" "http://www.w3.org/Graphics/SVG/1.1/DTD/svg11.dtd">
<svg version="1.1" id="Layer_1" xmlns="http://www.w3.org/2000/svg" xmlns:xlink="http://www.w3.org/1999/xlink" x="0px" y="0px"
	 width="60px" height="60px" viewBox="0 0 60 60" enable-background="new 0 0 60 60" xml:space="preserve">
<g>
	<defs>
		<path id="SVGID_1_" d="M51.277,46.749h-50v-45h50V46.749L51.277,46.749z M3.433,40.669v4.079h4.147v-4.079H3.433L3.433,40.669z
			 M9.406,40.669v4.079h4.142v-4.079H9.406L9.406,40.669z M15.373,40.669v4.079h4.146v-4.079H15.373L15.373,40.669z M21.344,40.669
			v4.079h4.146v-4.079H21.344L21.344,40.669z M27.315,40.669v4.079h4.148v-4.079H27.315L27.315,40.669z M33.286,40.669v4.079h4.144
			v-4.079H33.286L33.286,40.669z M39.253,40.669v4.079h4.148v-4.079H39.253L39.253,40.669z M45.225,40.669v4.079h4.148v-4.079
			H45.225L45.225,40.669z M3.598,10.042v28.411h21.725V10.042H3.598L3.598,10.042z M27.479,10.042v28.411h21.725V10.042H27.479
			L27.479,10.042z M3.433,3.915v4.084h4.147V3.915H3.433L3.433,3.915z M9.406,3.915v4.084h4.142V3.915H9.406L9.406,3.915z
			 M15.373,3.915v4.084h4.146V3.915H15.373L15.373,3.915z M21.344,3.915v4.084h4.146V3.915H21.344L21.344,3.915z M27.315,3.915
			v4.084h4.148V3.915H27.315L27.315,3.915z M33.286,3.915v4.084h4.144V3.915H33.286L33.286,3.915z M39.253,3.915v4.084h4.148V3.915
			H39.253L39.253,3.915z M45.225,3.915v4.084h4.148V3.915H45.225L45.225,3.915z"/>
	</defs>
	<clipPath id="SVGID_2_">
		<use xlink:href="#SVGID_1_"  overflow="visible"/>
	</clipPath>
	<rect clip-path="url(#SVGID_2_)" fill="#B3B2B2" width="52" height="48"/>
</g>
</svg>
