<?xml version="1.0" encoding="utf-8"?>
<!-- Generator: Adobe Illustrator 16.2.1, SVG Export Plug-In . SVG Version: 6.00 Build 0)  -->
<!DOCTYPE svg PUBLIC "-//W3C//DTD SVG 1.1//EN" "http://www.w3.org/Graphics/SVG/1.1/DTD/svg11.dtd">
<svg version="1.1" id="Layer_1" xmlns="http://www.w3.org/2000/svg" xmlns:xlink="http://www.w3.org/1999/xlink" x="0px" y="0px"
	 width="160px" height="160px" viewBox="0 0 160 160" enable-background="new 0 0 160 160" xml:space="preserve">
<g id="Isolation_Mode">
	<path fill="#D3D3D3" d="M80,0c0,0-18.772,11.641-43.56,36.44C11.641,61.228,0,80,0,80s11.501,20.275,35.615,44.385
		C59.725,148.488,80,160,80,160s20.684-10.275,45.477-35.068C150.275,100.139,160,80,160,80s-10.234-18.813-34.885-43.474
		C100.454,11.875,80,0,80,0z M145.518,80.156c0,0-7.947,16.462-28.213,36.717c-20.256,20.266-37.166,28.661-37.166,28.661
		s-16.567-9.403-36.265-29.104C24.165,96.729,14.763,80.156,14.763,80.156s9.515-15.334,29.783-35.593
		c20.257-20.261,35.593-29.78,35.593-29.78s16.718,9.704,36.867,29.858C137.162,64.79,145.518,80.156,145.518,80.156z"/>
</g>
<path fill="#D3D3D3" d="M79.163,112.084c-15.047,0-23.584-6.08-24.51-6.773c-2.895-2.174-3.481-6.285-1.311-9.18
	c2.16-2.869,6.226-3.469,9.124-1.348c0.334,0.236,6.113,4.195,16.697,4.195c10.679,0,16.479-4.031,16.722-4.201
	c2.914-2.072,7.01-1.441,9.121,1.453c2.121,2.906,1.547,6.938-1.328,9.09C102.758,106.004,94.211,112.084,79.163,112.084z"/>
<circle fill="#D3D3D3" cx="57.303" cy="64.074" r="11.475"/>
<circle fill="#D3D3D3" cx="101.01" cy="64.074" r="11.475"/>
</svg>
