<?xml version="1.0" encoding="utf-8"?>
<!-- Generator: Adobe Illustrator 16.2.1, SVG Export Plug-In . SVG Version: 6.00 Build 0)  -->
<!DOCTYPE svg PUBLIC "-//W3C//DTD SVG 1.1//EN" "http://www.w3.org/Graphics/SVG/1.1/DTD/svg11.dtd">
<svg version="1.1" id="Layer_1" xmlns="http://www.w3.org/2000/svg" xmlns:xlink="http://www.w3.org/1999/xlink" x="0px" y="0px"
	 width="110px" height="110px" viewBox="0 0 110 110" enable-background="new 0 0 110 110" xml:space="preserve">
<g id="Isolation_Mode">
	<path fill="#D3D3D3" d="M55,0c0,0-12.905,8.003-29.948,25.052C8.003,42.095,0,55,0,55s7.907,13.939,24.485,30.515
		C41.061,102.086,55,110,55,110s14.22-7.064,31.265-24.109C103.314,68.845,110,55,110,55s-7.036-12.934-23.982-29.889
		C69.062,8.164,55,0,55,0z M100.044,55.107c0,0-5.465,11.317-19.396,25.242c-13.926,13.933-25.552,19.706-25.552,19.706
		S43.706,93.59,30.163,80.045C16.614,66.501,10.15,55.107,10.15,55.107s6.541-10.542,20.475-24.471
		c13.927-13.929,24.47-20.473,24.47-20.473s11.494,6.671,25.347,20.527C94.299,44.543,100.044,55.107,100.044,55.107z"/>
</g>
<path fill="#D3D3D3" d="M54.424,77.058c-10.345,0-16.213-4.18-16.851-4.657c-1.99-1.495-2.393-4.321-0.901-6.311
	c1.485-1.973,4.281-2.385,6.273-0.926c0.229,0.163,4.203,2.884,11.479,2.884c7.342,0,11.33-2.771,11.497-2.889
	c2.003-1.424,4.819-0.991,6.271,0.999c1.458,1.998,1.063,4.77-0.913,6.25C70.646,72.878,64.77,77.058,54.424,77.058z"/>
<circle fill="#D3D3D3" cx="39.396" cy="44.051" r="7.889"/>
<circle fill="#D3D3D3" cx="69.444" cy="44.051" r="7.889"/>
</svg>
