<?xml version="1.0" encoding="utf-8"?>
<!-- Generator: Adobe Illustrator 16.2.1, SVG Export Plug-In . SVG Version: 6.00 Build 0)  -->
<!DOCTYPE svg PUBLIC "-//W3C//DTD SVG 1.1//EN" "http://www.w3.org/Graphics/SVG/1.1/DTD/svg11.dtd">
<svg version="1.1" id="Layer_1" xmlns="http://www.w3.org/2000/svg" xmlns:xlink="http://www.w3.org/1999/xlink" x="0px" y="0px"
	 width="18px" height="18px" viewBox="0 0 18 18" enable-background="new 0 0 18 18" xml:space="preserve">
<path fill="#CC2F28" d="M6.849,2.841V2.258h1.646v0.583c0,0.309,0.253,0.562,0.563,0.562h0.141c0.31,0,0.563-0.254,0.563-0.562
	V2.258h1.647v0.583c0,0.309,0.253,0.562,0.562,0.562h0.142c0.309,0,0.563-0.254,0.563-0.562V2.258h0.336l1.072,1.051v1.683h1.127
	V2.837l-1.738-1.704h-0.797v-0.57C12.677,0.254,12.423,0,12.114,0h-0.142c-0.31,0-0.562,0.254-0.562,0.562v0.57H9.763v-0.57
	C9.763,0.254,9.509,0,9.199,0H9.059C8.748,0,8.495,0.254,8.495,0.562v0.57H6.849v-0.57C6.849,0.254,6.595,0,6.286,0H6.144
	c-0.31,0-0.562,0.254-0.562,0.562v0.57H3.934v-0.57C3.934,0.254,3.68,0,3.371,0H3.23C2.919,0,2.667,0.254,2.667,0.562v0.57H0V18
	h4.977l0.282-1.125H1.127V2.258h1.54v0.583c0,0.309,0.253,0.562,0.563,0.562h0.141c0.31,0,0.563-0.254,0.563-0.562V2.258h1.647
	v0.583c0,0.309,0.253,0.562,0.562,0.562h0.142C6.595,3.403,6.849,3.149,6.849,2.841z"/>
<path fill="#CC2F28" d="M17.666,8.552l-1.803-1.801c-0.438-0.438-1.148-0.445-1.578-0.019c0,0.001,0,0.001,0,0.001h-0.001
	l-6.576,6.565L7.575,13.43l-1.138,4.537l4.541-1.137l0.424-0.431l0,0l6.282-6.273l0,0c0-0.001,0-0.001,0.001-0.001
	C18.112,9.698,18.104,8.989,17.666,8.552z M8.041,13.887l2.482,2.479l-2.33,0.583l-0.729-0.766L8.041,13.887z M10.979,14.832
	l-1.408-1.405l4.712-4.705l1.407,1.405L10.979,14.832z"/>
</svg>
