<?xml version="1.0" encoding="utf-8"?>
<!-- Generator: Adobe Illustrator 16.2.1, SVG Export Plug-In . SVG Version: 6.00 Build 0)  -->
<!DOCTYPE svg PUBLIC "-//W3C//DTD SVG 1.1//EN" "http://www.w3.org/Graphics/SVG/1.1/DTD/svg11.dtd">
<svg version="1.1" id="Layer_1" xmlns="http://www.w3.org/2000/svg" xmlns:xlink="http://www.w3.org/1999/xlink" x="0px" y="0px"
	 width="110px" height="110px" viewBox="0 0 110 110" enable-background="new 0 0 110 110" xml:space="preserve">
<g id="Isolation_Mode">
	<path fill="#D3D3D3" d="M54.868,0c0,0-12.905,8.003-29.948,25.052C7.871,42.095-0.132,55-0.132,55s7.907,13.939,24.485,30.515
		C40.929,102.086,54.868,110,54.868,110s14.22-7.064,31.265-24.109C103.183,68.845,109.868,55,109.868,55
		s-7.036-12.934-23.983-29.889C68.93,8.164,54.868,0,54.868,0z M99.911,55.107c0,0-5.464,11.317-19.396,25.243
		c-13.926,13.933-25.552,19.706-25.552,19.706s-11.389-6.466-24.932-20.01c-13.55-13.544-20.014-24.938-20.014-24.938
		s6.541-10.542,20.476-24.471c13.926-13.929,24.47-20.473,24.47-20.473S66.458,16.834,80.31,30.69
		C94.167,44.543,99.911,55.107,99.911,55.107z"/>
</g>
<g id="Layer_2">
	<circle fill="#D3D3D3" cx="40" cy="43.593" r="7.805"/>
	<path fill="#D3D3D3" d="M77.542,43.593c0,4.31-3.496,7.807-7.805,7.807c-4.311,0-7.806-3.497-7.806-7.807
		c0-4.312,3.495-7.807,7.806-7.807C74.047,35.786,77.542,39.281,77.542,43.593z"/>
	<path fill="#D3D3D3" d="M36.098,74.968c-0.016,0-0.035,0-0.053,0c-1.644-0.028-2.951-1.383-2.923-3.024
		c0.075-4.395,2.214-12.704,9.772-12.704c5.065,0,7.045,3.833,8.351,6.369c1.411,2.726,1.979,3.412,3.583,3.412
		c1.391,0,1.725-0.379,2.749-3.134c0.925-2.485,2.475-6.647,7.693-6.647c7.181,0,10.057,7.551,10.573,11.543
		c0.213,1.628-0.933,3.12-2.563,3.333c-1.647,0.211-3.122-0.938-3.33-2.565c-0.009-0.054-0.918-6.362-4.679-6.362
		c-0.862,0-1.127,0.109-2.116,2.773c-0.975,2.621-2.608,7.008-8.325,7.008c-5.441,0-7.502-3.991-8.867-6.633
		c-1.381-2.677-1.841-3.147-3.068-3.147c-3.551,0-3.823,6.788-3.824,6.857C39.042,73.668,37.718,74.968,36.098,74.968z"/>
</g>
</svg>
