<?xml version="1.0" encoding="utf-8"?>
<!-- Generator: Adobe Illustrator 16.2.1, SVG Export Plug-In . SVG Version: 6.00 Build 0)  -->
<!DOCTYPE svg PUBLIC "-//W3C//DTD SVG 1.1//EN" "http://www.w3.org/Graphics/SVG/1.1/DTD/svg11.dtd">
<svg version="1.1" id="Layer_1" xmlns="http://www.w3.org/2000/svg" xmlns:xlink="http://www.w3.org/1999/xlink" x="0px" y="0px"
	 width="80px" height="80px" viewBox="0 0 80 80" enable-background="new 0 0 80 80" xml:space="preserve">
<g id="Isolation_Mode">
	<path fill="#D3D3D3" d="M40,0c0,0-9.386,5.82-21.78,18.22C5.82,30.614,0,40,0,40s5.75,10.138,17.808,22.192
		C29.862,74.244,40,80,40,80s10.342-5.138,22.738-17.534C75.138,50.069,80,40,80,40s-5.117-9.406-17.442-21.737
		C50.227,5.938,40,0,40,0z M72.759,40.078c0,0-3.974,8.23-14.106,18.358C48.524,68.569,40.069,72.768,40.069,72.768
		s-8.283-4.702-18.132-14.553C12.083,48.364,7.382,40.078,7.382,40.078s4.757-7.667,14.891-17.797
		c10.128-10.13,17.796-14.89,17.796-14.89s8.359,4.852,18.434,14.929C68.581,32.395,72.759,40.078,72.759,40.078z"/>
</g>
<g id="Layer_2">
	<circle fill="#D3D3D3" cx="29.187" cy="31.704" r="5.677"/>
	<path fill="#D3D3D3" d="M56.49,31.704c0,3.135-2.543,5.678-5.677,5.678c-3.135,0-5.677-2.543-5.677-5.678
		c0-3.136,2.542-5.678,5.677-5.678S56.49,28.568,56.49,31.704z"/>
	<path fill="#D3D3D3" d="M26.349,54.522c-0.012,0-0.025,0-0.038,0c-1.195-0.021-2.146-1.006-2.126-2.199
		c0.055-3.196,1.61-9.239,7.107-9.239c3.684,0,5.124,2.787,6.074,4.632c1.026,1.982,1.439,2.481,2.605,2.481
		c1.012,0,1.255-0.275,1.999-2.279c0.673-1.808,1.8-4.834,5.595-4.834c5.223,0,7.314,5.491,7.689,8.395
		c0.155,1.185-0.679,2.27-1.864,2.424c-1.198,0.153-2.271-0.683-2.422-1.865c-0.007-0.039-0.668-4.627-3.403-4.627
		c-0.627,0-0.819,0.079-1.539,2.017c-0.709,1.906-1.896,5.097-6.055,5.097c-3.957,0-5.456-2.902-6.448-4.824
		c-1.004-1.947-1.339-2.289-2.231-2.289c-2.582,0-2.78,4.937-2.781,4.987C28.49,53.577,27.527,54.522,26.349,54.522z"/>
</g>
</svg>
