<?xml version="1.0" encoding="utf-8"?>
<!-- Generator: Adobe Illustrator 16.2.1, SVG Export Plug-In . SVG Version: 6.00 Build 0)  -->
<!DOCTYPE svg PUBLIC "-//W3C//DTD SVG 1.1//EN" "http://www.w3.org/Graphics/SVG/1.1/DTD/svg11.dtd">
<svg version="1.1" id="Layer_1" xmlns="http://www.w3.org/2000/svg" xmlns:xlink="http://www.w3.org/1999/xlink" x="0px" y="0px"
	 width="20px" height="20px" viewBox="0 0 20 20" enable-background="new 0 0 20 20" xml:space="preserve">
<path fill="#CECECE" d="M9,7c0,1.104-0.896,2-2,2H2C0.896,9,0,8.104,0,7V2c0-1.104,0.896-2,2-2h5c1.104,0,2,0.896,2,2V7z"/>
<path fill="#CECECE" d="M20,7c0,1.104-0.896,2-2,2h-5c-1.104,0-2-0.896-2-2V2c0-1.104,0.896-2,2-2h5c1.104,0,2,0.896,2,2V7z"/>
<path fill="#CECECE" d="M9,18c0,1.104-0.896,2-2,2H2c-1.104,0-2-0.896-2-2v-5c0-1.104,0.896-2,2-2h5c1.104,0,2,0.896,2,2V18z"/>
<path fill="#CECECE" d="M20,18c0,1.104-0.896,2-2,2h-5c-1.104,0-2-0.896-2-2v-5c0-1.104,0.896-2,2-2h5c1.104,0,2,0.896,2,2V18z"/>
</svg>
