<?xml version="1.0" encoding="utf-8"?>
<!-- Generator: Adobe Illustrator 17.0.1, SVG Export Plug-In . SVG Version: 6.00 Build 0)  -->
<!DOCTYPE svg PUBLIC "-//W3C//DTD SVG 1.1//EN" "http://www.w3.org/Graphics/SVG/1.1/DTD/svg11.dtd">
<svg version="1.1" id="Layer_1" xmlns="http://www.w3.org/2000/svg" xmlns:xlink="http://www.w3.org/1999/xlink" x="0px" y="0px"
	 width="38.145px" height="31.188px" viewBox="0 0 38.145 31.188" enable-background="new 0 0 38.145 31.188" xml:space="preserve">
<rect x="34.458" fill="#1A91AD" width="2.626" height="31.188"/>
<rect x="37.083" fill="#2BD0F7" width="1.062" height="31.188"/>
<rect x="33.396" fill="#2BD0F7" width="1.062" height="31.188"/>
<path fill="#FFFFFF" d="M27.721,9.47c-0.726,0.322-1.507,0.54-2.327,0.638c0.836-0.501,1.478-1.295,1.781-2.242
	c-0.783,0.464-1.649,0.802-2.572,0.983c-0.739-0.787-1.792-1.279-2.957-1.279c-2.237,0-4.051,1.814-4.051,4.051
	c0,0.317,0.035,0.626,0.105,0.923c-3.367-0.17-6.352-1.782-8.35-4.233C9,8.91,8.8,9.605,8.8,10.348c0,1.405,0.715,2.645,1.802,3.372
	c-0.664-0.021-1.288-0.203-1.835-0.506c-0.001,0.017-0.001,0.034-0.001,0.05c0,1.963,1.396,3.6,3.25,3.972
	c-0.34,0.093-0.698,0.142-1.068,0.142c-0.261,0-0.515-0.026-0.763-0.072c0.515,1.609,2.012,2.781,3.785,2.814
	c-1.386,1.087-3.133,1.734-5.031,1.734c-0.327,0-0.65-0.02-0.967-0.057c1.793,1.15,3.923,1.82,6.21,1.82
	c7.451,0,11.527-6.173,11.527-11.527c0-0.176-0.005-0.35-0.012-0.524C26.491,10.996,27.178,10.282,27.721,9.47"/>
</svg>
