<?xml version="1.0" encoding="utf-8"?>
<!-- Generator: Adobe Illustrator 17.0.1, SVG Export Plug-In . SVG Version: 6.00 Build 0)  -->
<!DOCTYPE svg PUBLIC "-//W3C//DTD SVG 1.1//EN" "http://www.w3.org/Graphics/SVG/1.1/DTD/svg11.dtd">
<svg version="1.1" id="Layer_1" xmlns="http://www.w3.org/2000/svg" xmlns:xlink="http://www.w3.org/1999/xlink" x="0px" y="0px"
	 width="107.852px" height="47.625px" viewBox="0 0 107.852 47.625" enable-background="new 0 0 107.852 47.625"
	 xml:space="preserve">
<rect x="45.458" fill="#1A91AD" width="2.626" height="47.625"/>
<rect x="48.083" fill="#2BD0F7" width="1.062" height="47.625"/>
<rect x="44.396" fill="#2BD0F7" width="1.062" height="47.625"/>
<path fill="#FFFFFF" d="M36.191,13.851c-0.964,0.428-2,0.717-3.088,0.847c1.11-0.665,1.962-1.719,2.364-2.975
	c-1.039,0.616-2.189,1.064-3.414,1.305c-0.981-1.045-2.378-1.698-3.925-1.698c-2.969,0-5.377,2.407-5.377,5.376
	c0,0.421,0.047,0.831,0.139,1.225c-4.469-0.225-8.43-2.365-11.082-5.618c-0.463,0.795-0.728,1.718-0.728,2.703
	c0,1.865,0.949,3.511,2.392,4.475c-0.881-0.028-1.71-0.27-2.435-0.672c-0.001,0.023-0.001,0.045-0.001,0.067
	c0,2.605,1.853,4.778,4.313,5.272c-0.451,0.123-0.926,0.189-1.417,0.189c-0.346,0-0.683-0.034-1.012-0.096
	c0.684,2.136,2.67,3.691,5.023,3.734c-1.84,1.442-4.158,2.301-6.677,2.301c-0.434,0-0.862-0.026-1.283-0.075
	c2.38,1.526,5.206,2.416,8.242,2.416c9.889,0,15.298-8.193,15.298-15.298c0-0.233-0.006-0.465-0.016-0.695
	C34.559,15.876,35.471,14.929,36.191,13.851"/>
</svg>
